<?xml version="1.0" standalone="no"?>
<!DOCTYPE svg PUBLIC "-//W3C//DTD SVG 20010904//EN"
 "http://www.w3.org/TR/2001/REC-SVG-20010904/DTD/svg10.dtd">
<svg version="1.0" xmlns="http://www.w3.org/2000/svg"
 width="236.000000pt" height="439.000000pt" viewBox="0 0 236.000000 439.000000"
 preserveAspectRatio="xMidYMid meet">

<g transform="translate(0.000000,439.000000) scale(0.100000,-0.100000)"
fill="#000000" stroke="none">
<path d="M327 4356 c4 -24 0 -44 -11 -60 -20 -31 -22 -53 -3 -34 7 7 17 22 21
33 5 11 10 15 13 9 2 -7 14 -10 26 -7 20 4 20 3 4 -7 -9 -6 -22 -8 -27 -5 -6
3 -10 -1 -10 -9 0 -9 -4 -16 -10 -16 -21 0 -8 -52 38 -146 l47 -99 3 119 c2
73 -1 123 -8 130 -5 5 -10 18 -10 27 0 10 -11 20 -26 23 -34 9 -25 31 12 31
22 0 29 5 29 20 0 17 -8 20 -47 23 l-47 3 6 -35z"/>
<path d="M2352 4350 c0 -14 2 -19 5 -12 2 6 2 18 0 25 -3 6 -5 1 -5 -13z"/>
<path d="M2349 3873 c-1 -421 -5 -504 -23 -475 -4 7 -3 19 4 27 6 7 10 31 7
52 l-4 38 -1 -42 c-2 -40 -4 -43 -31 -43 -18 0 -35 -8 -46 -24 -15 -20 -23
-23 -42 -15 -33 12 -153 12 -153 -1 0 -5 -13 -10 -30 -10 -16 0 -30 5 -30 10
0 19 -40 10 -55 -14 -12 -17 -22 -22 -42 -18 -18 3 -24 1 -19 -6 8 -14 -3 -82
-14 -82 -12 0 -21 73 -9 81 7 4 6 8 -3 11 -7 3 -19 -1 -26 -8 -7 -8 -8 -14 -2
-14 5 0 10 -7 10 -15 0 -13 -3 -13 -20 -3 -16 10 -24 10 -39 1 -15 -10 -21
-10 -24 0 -4 9 -6 9 -6 0 -1 -7 -7 -13 -15 -13 -21 0 -46 -28 -40 -44 3 -8 1
-17 -4 -20 -6 -3 -12 1 -16 9 -8 22 -34 18 -38 -5 -2 -12 -7 -21 -13 -21 -5 0
-11 9 -13 21 -3 15 -11 20 -32 20 -23 0 -28 -3 -23 -17 5 -12 3 -14 -8 -8 -8
4 -11 5 -7 0 15 -16 -26 -34 -62 -28 l-35 6 19 -22 c11 -11 25 -21 32 -21 14
0 217 -80 260 -103 16 -9 55 -36 88 -61 32 -25 64 -46 71 -46 7 0 15 -4 17 -8
2 -5 30 -27 63 -49 33 -22 71 -53 84 -67 28 -30 81 -37 81 -10 0 9 6 14 13 11
6 -2 11 -10 10 -16 -2 -7 13 -11 41 -11 l43 0 6 -87 c4 -49 10 -188 13 -310
l7 -223 28 0 c21 0 29 -6 32 -22 2 -13 5 462 6 1055 0 592 -1 1077 -4 1077 -3
0 -5 -197 -6 -437z m-429 -545 c0 -19 -2 -20 -10 -8 -13 19 -13 30 0 30 6 0
10 -10 10 -22z m347 16 c-3 -3 -12 -4 -19 -1 -8 3 -5 6 6 6 11 1 17 -2 13 -5z
m70 -16 c-3 -8 -6 -5 -6 6 -1 11 2 17 5 13 3 -3 4 -12 1 -19z m-524 -55 c-7
-2 -19 -2 -25 0 -7 3 -2 5 12 5 14 0 19 -2 13 -5z m77 -28 c0 -8 -4 -15 -10
-15 -5 0 -10 7 -10 15 0 8 5 15 10 15 6 0 10 -7 10 -15z m-297 -22 c-10 -3 -9
-8 3 -20 8 -8 12 -18 9 -21 -3 -4 -10 0 -14 7 -5 7 -13 11 -19 7 -11 -7 -24
18 -15 28 4 3 16 6 27 5 12 0 15 -3 9 -6z m37 -23 c0 -5 -2 -10 -4 -10 -3 0
-8 5 -11 10 -3 6 -1 10 4 10 6 0 11 -4 11 -10z m50 -30 c0 -5 -7 -7 -15 -4 -8
4 -15 8 -15 10 0 2 7 4 15 4 8 0 15 -4 15 -10z m233 -147 c3 -5 -6 -9 -20 -10
-19 -1 -22 1 -12 8 17 11 26 11 32 2z m214 -160 c-4 -3 -2 -12 4 -20 9 -10 8
-13 -3 -13 -22 0 -29 12 -17 27 6 7 14 13 17 13 3 0 2 -3 -1 -7z"/>
<path d="M926 4189 c-16 -13 -61 -39 -100 -60 -39 -20 -94 -49 -122 -64 l-51
-27 -17 -77 c-9 -42 -16 -111 -16 -154 0 -69 -2 -77 -19 -77 -10 0 -21 7 -25
15 -3 8 -10 15 -15 15 -21 0 12 -50 41 -62 17 -8 26 -18 23 -27 -3 -7 -2 -19
3 -25 5 -6 17 -37 26 -68 13 -41 21 -55 32 -51 9 3 14 -2 14 -16 0 -11 9 -25
20 -31 11 -6 18 -15 16 -19 -3 -4 1 -17 9 -27 17 -23 19 -34 5 -34 -5 0 -10 7
-10 16 0 8 -4 12 -10 9 -6 -4 -7 1 -3 11 5 15 3 14 -23 -2 -15 -11 -25 -13
-21 -6 5 6 4 12 -2 12 -5 0 -11 -4 -13 -9 -4 -11 -48 -25 -48 -14 0 14 20 39
20 26 0 -23 18 -14 22 12 5 24 -7 36 -14 14 -5 -15 -56 38 -61 64 -2 12 -4 -3
-4 -33 0 -30 -1 -89 -4 -130 -3 -70 -1 -79 30 -135 49 -88 57 -95 110 -95 52
0 208 65 175 72 -30 7 62 90 119 106 39 12 48 12 69 -2 15 -10 39 -14 64 -12
22 2 61 -1 88 -7 36 -8 49 -8 55 1 4 6 20 10 36 8 29 -4 30 -2 32 39 1 24 8
54 17 67 16 24 51 121 81 223 11 36 20 106 23 177 4 104 2 125 -18 177 -23 62
-29 67 -120 101 -19 7 -39 17 -45 21 -5 4 -27 6 -48 4 -24 -1 -47 4 -60 15
-42 32 -75 39 -189 43 -27 1 -48 5 -48 9 0 15 50 20 81 9 18 -6 35 -9 37 -6
11 11 -10 19 -61 23 -43 3 -57 0 -81 -19z m-306 -744 c0 -8 -4 -15 -10 -15 -5
0 -10 7 -10 15 0 8 5 15 10 15 6 0 10 -7 10 -15z m137 -87 c-3 -8 -6 -5 -6 6
-1 11 2 17 5 13 3 -3 4 -12 1 -19z"/>
<path d="M2072 3478 c-1 -20 -5 -45 -8 -55 -5 -14 -4 -15 5 -7 7 7 11 29 8 55
-3 42 -4 42 -5 7z"/>
<path d="M1760 3355 c0 -9 5 -15 11 -13 6 2 11 8 11 13 0 5 -5 11 -11 13 -6 2
-11 -4 -11 -13z"/>
<path d="M1602 3330 c0 -14 2 -19 5 -12 2 6 2 18 0 25 -3 6 -5 1 -5 -13z"/>
<path d="M1650 3301 c0 -5 7 -14 15 -21 13 -10 15 -9 15 9 0 12 -6 21 -15 21
-8 0 -15 -4 -15 -9z"/>
<path d="M1370 3262 c0 -13 46 -35 62 -29 7 3 3 6 -10 6 -12 1 -25 8 -28 16
-6 16 -24 21 -24 7z"/>
<path d="M1160 3219 c-28 -5 -23 -7 28 -8 34 0 62 1 62 3 0 8 -56 11 -90 5z"/>
<path d="M1098 3213 c7 -3 16 -2 19 1 4 3 -2 6 -13 5 -11 0 -14 -3 -6 -6z"/>
<path d="M1400 3216 c0 -2 9 -6 20 -9 11 -3 18 -1 14 4 -5 9 -34 13 -34 5z"/>
<path d="M570 3158 c0 -18 18 -34 28 -24 3 4 -2 14 -11 23 -16 16 -17 16 -17
1z"/>
<path d="M1065 3091 c-9 -15 10 -45 39 -65 30 -19 36 -20 36 -5 0 5 -4 8 -8 5
-5 -3 -20 13 -34 35 -14 22 -29 35 -33 30z"/>
<path d="M1243 3086 c3 -8 -5 -24 -18 -36 -20 -19 -27 -21 -40 -10 -8 7 -15
20 -16 29 -1 9 -6 0 -11 -19 -14 -45 -13 -101 1 -170 6 -30 13 -91 16 -135 5
-92 34 -217 49 -212 6 2 10 19 9 38 -2 19 5 53 13 77 12 33 13 46 4 57 -7 9
-12 60 -14 137 -1 68 -5 129 -10 136 -5 8 -4 18 3 25 6 6 11 7 11 2 1 -6 7 8
15 30 16 42 13 65 -6 65 -6 0 -9 -6 -6 -14z m-53 -112 c0 -8 -5 -12 -10 -9 -6
4 -8 11 -5 16 9 14 15 11 15 -7z m27 -286 c-3 -8 -6 -5 -6 6 -1 11 2 17 5 13
3 -3 4 -12 1 -19z"/>
<path d="M0 2266 c0 -419 3 -535 13 -539 9 -3 10 -11 0 -39 -17 -44 -19 -714
-3 -720 16 -5 38 -103 44 -195 l6 -81 -30 -11 c-29 -10 -30 -12 -30 -75 0 -37
4 -66 10 -66 5 0 6 7 3 17 -4 11 -3 14 5 9 8 -5 12 1 12 18 0 23 2 25 19 14
21 -13 44 -78 35 -101 -3 -9 -12 -18 -20 -21 -12 -5 -11 -13 9 -48 23 -40 24
-48 16 -123 -5 -44 -9 -86 -9 -92 0 -7 1 -21 1 -30 0 -10 -3 -55 -7 -100 l-6
-83 488 0 489 0 29 27 c21 19 31 23 34 14 4 -11 6 -11 14 0 5 9 6 5 2 -13 l-6
-28 402 0 402 0 -6 25 c-5 19 -3 23 8 19 18 -7 36 25 36 62 0 19 14 40 45 71
40 39 58 73 37 73 -4 0 -13 14 -20 30 -8 17 -18 28 -22 25 -8 -5 -25 10 -81
72 -24 27 -80 73 -88 73 -4 0 -17 18 -30 40 -12 22 -26 40 -32 40 -5 0 -9 9
-9 20 0 13 -7 20 -20 20 -13 0 -20 7 -20 20 0 18 -20 26 -52 21 -5 0 -8 3 -8
9 0 5 5 10 10 10 6 0 10 7 10 15 0 15 -16 20 -57 16 -13 -1 -23 3 -23 9 0 5 7
10 15 10 8 0 15 5 15 10 0 15 -17 12 -36 -7 -13 -13 -19 -14 -22 -5 -2 6 -12
12 -22 12 -21 0 -54 46 -46 66 3 8 2 14 -2 14 -12 0 -62 -60 -62 -74 0 -18
-53 -66 -72 -66 -21 0 -36 22 -20 28 7 2 12 9 12 15 0 8 -4 7 -12 -1 -7 -7
-20 -12 -30 -12 -14 0 -16 7 -13 34 3 19 1 37 -4 40 -11 7 -33 -18 -29 -35 2
-7 -8 -14 -24 -15 -19 -2 -28 2 -28 12 0 38 -43 -14 -45 -55 0 -14 -14 -35
-33 -51 -18 -14 -32 -31 -32 -37 0 -13 -33 -43 -48 -43 -15 0 -9 43 6 48 7 2
12 13 12 25 0 16 3 18 9 8 5 -8 11 -9 15 -3 3 5 -1 15 -9 22 -14 11 -13 14 6
24 22 11 37 56 20 56 -14 0 -39 -27 -46 -49 -7 -22 -32 -35 -40 -21 -4 6 -1
10 4 10 6 0 11 15 10 33 0 17 -3 26 -6 20 -3 -9 -10 -9 -28 3 -22 14 -24 14
-35 -6 -8 -15 -17 -19 -31 -15 -22 7 -24 2 -7 -25 18 -28 4 -34 -44 -18 -49
17 -290 23 -318 8 -10 -5 -20 -7 -23 -4 -10 10 4 34 19 34 17 0 84 64 84 80 0
12 -13 13 -25 1 -6 -5 -25 -12 -42 -16 -28 -5 -32 -4 -27 9 3 9 3 16 0 16 -4
0 -12 -13 -17 -30 -6 -16 -18 -30 -26 -30 -9 0 -13 6 -9 15 9 25 -14 17 -46
-17 -32 -35 -83 -127 -71 -129 5 -1 18 0 30 0 11 1 24 -3 28 -9 4 -7 16 -4 34
9 36 26 100 40 175 41 77 0 67 -9 -26 -21 -40 -6 -81 -17 -90 -26 -9 -8 -21
-12 -27 -8 -6 3 -21 -3 -33 -15 -13 -11 -29 -18 -38 -15 -31 13 -35 9 -32 -23
1 -24 -3 -34 -15 -39 -20 -7 -73 -62 -73 -75 0 -4 -6 -8 -13 -8 -8 0 -24 -9
-37 -20 -13 -11 -26 -20 -29 -20 -3 0 -19 -12 -34 -26 -16 -14 -30 -24 -33
-21 -2 2 16 19 40 38 45 34 94 122 142 253 16 45 60 107 112 161 44 45 102 90
89 67 -5 -6 0 -8 13 -5 11 3 18 9 15 13 -11 18 170 79 245 81 19 1 49 5 65 10
25 7 23 7 -12 4 -41 -5 -43 -4 -44 22 -1 17 -3 21 -6 10 -2 -9 -9 -17 -15 -17
-6 0 -8 9 -5 19 4 17 -1 19 -49 18 -30 -1 -54 -5 -54 -8 0 -4 -29 -13 -64 -20
-50 -9 -67 -18 -77 -36 -7 -13 -21 -23 -31 -23 -11 0 -17 4 -14 9 4 5 2 20 -3
33 -8 18 -10 19 -10 5 -1 -10 -7 -17 -13 -15 -7 3 -21 -5 -30 -16 -17 -20 -18
-20 -12 -1 6 16 5 18 -7 8 -19 -18 -29 -16 -22 5 5 14 3 13 -10 -3 -9 -11 -17
-29 -17 -40 0 -11 -4 -25 -8 -31 -10 -16 -72 -35 -72 -23 0 6 5 53 12 105 l11
94 31 1 c62 2 111 -3 116 -12 4 -5 23 -4 45 2 43 11 224 66 265 80 23 8 22 9
-5 4 -22 -4 -26 -3 -15 5 8 5 23 10 33 10 21 0 18 21 -3 28 -7 3 -10 0 -6 -7
4 -6 0 -11 -9 -11 -9 0 -13 5 -10 10 3 6 -3 10 -14 10 -11 0 -24 6 -28 13 -4
8 -28 20 -52 28 -25 8 -46 19 -47 24 -4 12 80 80 99 80 6 0 18 4 24 8 7 5 13
5 13 0 0 -4 4 -2 8 5 10 15 111 19 121 5 3 -6 19 -13 36 -17 16 -4 49 -16 72
-27 33 -15 48 -17 62 -9 11 5 39 10 63 10 24 0 54 7 67 16 18 13 25 14 31 4 4
-7 15 -10 24 -7 9 4 15 3 15 -1 -1 -4 2 -17 6 -30 10 -32 73 -31 112 2 42 35
134 76 163 73 44 -5 53 -16 47 -58 -4 -32 -2 -39 11 -40 15 0 14 -1 -1 -8 -17
-6 -17 -8 2 -25 26 -24 29 -76 4 -77 -23 -1 55 -27 82 -27 11 0 16 1 10 4 -11
5 -12 114 -1 132 9 15 142 16 151 2 3 -5 0 -10 -7 -10 -11 0 -10 -2 0 -9 23
-14 25 -117 7 -291 -12 -116 -21 -170 -32 -182 -18 -20 -13 -102 7 -121 10
-10 11 -6 6 14 -7 32 15 55 41 44 17 -8 17 -8 1 -12 -13 -3 -18 -15 -18 -42 0
-32 9 -48 65 -109 36 -40 72 -84 81 -97 9 -14 21 -25 26 -25 10 0 2 53 -13 80
-17 31 -39 93 -39 111 0 10 -10 25 -22 33 -12 9 -19 18 -16 21 9 9 68 -7 68
-19 0 -6 13 -27 30 -46 19 -22 26 -38 20 -44 -14 -14 -13 -56 1 -56 7 0 9 9 6
23 -6 21 -5 21 8 3 12 -16 16 -16 28 -5 10 11 13 57 13 204 -1 118 3 205 11
230 6 22 18 62 26 89 l14 50 6 -105 c4 -57 10 -202 13 -321 4 -123 11 -218 16
-218 9 0 8 64 -12 521 -5 110 -5 214 0 235 17 74 30 340 25 489 -3 83 -8 227
-10 320 -5 215 -14 333 -26 341 -5 3 -9 18 -9 35 0 16 -4 29 -10 29 -5 0 -10
7 -10 16 0 13 -2 14 -14 1 -8 -8 -16 -34 -18 -58 -3 -43 -4 -44 -39 -47 -32
-3 -38 -7 -45 -35 -7 -28 -9 -24 -12 33 -4 73 5 122 17 101 6 -9 10 -3 13 17
2 17 1 29 -2 27 -7 -5 -30 38 -30 56 0 6 4 8 10 4 6 -3 5 5 -1 23 -11 33 2 79
25 88 8 3 12 12 9 20 -3 8 0 14 7 14 16 0 -29 44 -54 53 -11 5 -16 13 -12 23
4 12 2 15 -9 10 -8 -3 -15 -1 -15 4 0 6 -4 10 -9 10 -4 0 -3 -18 2 -40 9 -32
8 -46 -6 -75 -16 -33 -19 -35 -69 -36 -71 -1 -128 -7 -158 -15 -14 -4 -45 -7
-70 -8 -25 0 -48 -5 -52 -11 -8 -11 -10 4 -9 78 0 40 -4 49 -22 56 -30 12 -38
5 -32 -26 3 -20 1 -23 -7 -15 -15 15 -48 16 -48 1 0 -6 -7 -17 -15 -25 -9 -9
-12 -25 -9 -43 4 -16 1 -32 -5 -35 -7 -5 -9 -1 -5 8 9 23 -6 20 -27 -6 -16
-17 -19 -18 -19 -5 0 10 -7 17 -16 17 -14 0 -14 -3 -4 -15 11 -13 7 -15 -24
-15 -33 0 -41 -7 -37 -32 0 -5 -6 -8 -15 -8 -8 0 -12 -5 -9 -10 4 -6 -4 -19
-17 -30 -28 -23 -38 -25 -38 -6 0 8 -7 16 -15 20 -8 3 -14 9 -13 13 1 4 -10
22 -26 38 -16 17 -27 22 -23 13 4 -11 2 -15 -6 -13 -17 7 -46 -15 -30 -22 8
-2 13 -21 12 -41 0 -20 -3 -31 -6 -24 -2 6 -11 12 -19 12 -8 0 -17 7 -20 15
-4 8 -10 12 -15 9 -5 -3 -9 -1 -9 3 0 5 -11 20 -24 34 -19 20 -31 25 -62 23
-32 -3 -83 -9 -104 -13 -3 -1 2 -6 10 -11 10 -6 11 -10 3 -10 -7 0 -13 -9 -13
-20 0 -11 -5 -20 -11 -20 -8 0 -10 15 -7 44 3 26 1 50 -6 57 -8 8 -8 13 2 16
6 3 9 10 5 16 -4 7 -8 32 -9 57 -1 37 -5 45 -20 45 -17 0 -19 -8 -19 -65 0
-51 3 -64 15 -62 11 3 10 -2 -4 -17 -10 -11 -16 -27 -13 -36 4 -8 2 -15 -2
-15 -5 0 -12 7 -15 16 -3 8 -10 13 -14 10 -5 -3 -26 4 -48 14 -21 11 -48 20
-61 20 -12 0 -25 5 -28 10 -4 6 -15 8 -25 5 -11 -3 -30 0 -42 7 -13 7 -32 13
-43 13 -11 1 -41 5 -67 9 -52 8 -88 41 -88 81 0 24 60 85 84 85 7 0 19 6 25
14 10 11 8 16 -9 21 -30 10 -110 -4 -127 -21 -8 -8 -23 -14 -34 -14 -13 0 -19
-7 -19 -21 0 -15 -5 -19 -15 -15 -8 3 -15 1 -15 -4 0 -6 -11 -10 -25 -10 -18
0 -25 -5 -25 -19 0 -16 -6 -19 -27 -16 -16 2 -31 4 -35 4 -5 1 -8 6 -8 11 0 6
-10 20 -22 32 -16 16 -20 17 -15 5 3 -9 2 -17 -3 -17 -5 0 -16 -13 -25 -30 -9
-18 -23 -30 -35 -30 -18 0 -20 7 -20 68 0 79 5 89 45 95 17 2 -3 5 -42 6 l-73
1 0 -534z m104 221 c0 -89 -5 -135 -18 -172 -10 -27 -24 -95 -31 -150 -7 -55
-13 -84 -14 -65 -2 48 20 482 25 498 2 6 11 12 21 12 16 0 18 -11 17 -123z
m206 83 c0 -10 7 -35 16 -56 12 -29 15 -57 11 -106 -4 -50 -3 -68 7 -68 6 0
17 -20 24 -45 16 -59 16 -73 0 -57 -19 19 -29 14 -22 -12 3 -13 1 -27 -5 -30
-6 -4 -11 -2 -11 3 0 6 -7 11 -15 11 -8 0 -15 5 -15 10 0 6 -18 10 -40 10 -38
0 -40 1 -34 25 4 15 2 25 -5 25 -6 0 -11 7 -11 15 0 8 -5 15 -10 15 -7 0 -8
13 -4 36 6 33 2 49 -27 106 -9 19 38 118 62 129 8 3 23 11 34 16 24 13 45 0
45 -27z m762 -302 c-13 -13 -24 5 -16 27 7 16 8 16 17 0 6 -11 6 -20 -1 -27z
m1011 -21 c3 -8 1 -20 -4 -28 -6 -10 -9 -7 -9 14 0 29 5 35 13 14z m-2033
-262 c0 -43 -4 -75 -10 -75 -5 0 -10 17 -10 38 0 41 10 112 16 112 2 0 4 -34
4 -75z m1095 29 c-21 -15 -37 -10 -29 10 3 8 14 12 26 8 20 -5 20 -6 3 -18z
m-629 -161 c-5 -53 -4 -63 9 -63 8 0 15 9 15 21 0 11 4 18 9 15 11 -7 26 -85
18 -93 -9 -8 -107 19 -107 30 0 5 7 7 15 3 8 -3 15 -1 15 4 0 6 -4 10 -10 10
-14 0 -13 67 2 93 6 12 11 40 10 62 l-2 40 16 -29 c13 -23 15 -44 10 -93z m21
5 c-3 -7 -5 -2 -5 12 0 14 2 19 5 13 2 -7 2 -19 0 -25z m729 -23 c-2 -16 -9
-19 -29 -12 -9 3 -9 8 2 20 15 19 30 14 27 -8z m894 -26 c-10 -19 -10 -20 8
-10 11 6 23 16 26 23 3 7 4 -2 3 -20 -3 -27 1 -35 17 -41 20 -8 20 -8 1 -14
-11 -3 -38 -5 -60 -6 -36 -1 -41 2 -43 24 -1 15 7 31 25 44 32 26 37 26 23 0z
m-140 -134 c0 -27 -6 -30 -29 -16 -12 8 -12 12 -2 25 19 23 31 20 31 -9z
m-1446 -95 c-6 -43 -9 -49 -17 -34 -6 11 -15 22 -21 26 -6 4 -3 19 9 42 25 47
38 32 29 -34z m600 -70 c4 -5 -2 -14 -15 -21 l-23 -12 23 -9 c24 -8 24 -9 5
-27 -23 -22 -34 -18 -34 12 0 18 -2 19 -10 7 -10 -15 -11 -13 -14 25 -2 39 37
53 68 25z m213 -34 c-3 -42 -14 -56 -42 -56 -29 0 -41 -16 -25 -35 7 -8 7 -15
1 -19 -6 -4 -8 -12 -5 -19 3 -8 -10 -17 -36 -23 -36 -10 -40 -9 -46 10 -4 12
-10 23 -15 26 -5 3 -10 17 -11 30 -2 20 2 25 26 30 36 6 58 36 37 50 -12 7
-13 11 -1 24 9 12 28 16 66 15 52 -2 53 -2 51 -33z m-837 -136 c0 -5 -9 -10
-20 -10 -11 0 -20 5 -20 10 0 6 9 10 20 10 11 0 20 -4 20 -10z m-133 -27 c-15
-16 -17 -16 -17 -1 0 9 6 18 13 21 20 7 22 -2 4 -20z m137 -48 c-1 -22 -2 -50
-3 -62 -2 -39 -31 -28 -31 11 0 19 -3 41 -6 50 -5 12 0 16 17 16 26 0 16 15
-16 23 -12 3 -8 5 10 4 28 -2 30 -4 29 -42z m1146 -172 c0 -8 -11 -12 -27 -12
-25 2 -25 2 -5 6 18 4 22 9 17 26 -5 17 -4 19 4 7 6 -8 11 -21 11 -27z m-1273
-3 c6 -23 23 -27 23 -5 0 8 6 12 15 9 11 -5 12 -10 2 -25 -9 -15 -21 -19 -51
-17 -44 3 -55 18 -31 42 22 21 36 20 42 -4z m98 10 c-3 -5 -13 -10 -21 -10 -8
0 -14 5 -14 10 0 6 9 10 21 10 11 0 17 -4 14 -10z m-135 -369 c-10 -20 -23
-48 -29 -63 -7 -19 -15 -26 -26 -22 -31 12 -8 124 25 124 11 0 22 5 26 11 4 8
9 7 14 -2 5 -7 1 -28 -10 -48z m1546 -62 c44 -20 86 -31 120 -32 29 -1 50 -4
48 -6 -2 -2 1 -10 7 -17 19 -23 1 -34 -29 -18 -15 7 -42 17 -61 20 -19 4 -46
13 -60 20 -14 8 -30 14 -36 14 -12 0 -74 49 -63 50 4 0 38 -14 74 -31z m-666
-23 c0 -8 -6 -16 -14 -19 -10 -4 -12 0 -9 14 6 22 23 26 23 5z m-432 -33 c-10
-2 -28 -2 -40 0 -13 2 -5 4 17 4 22 1 32 -1 23 -4z m538 -5 c-3 -7 -9 -21 -12
-30 -10 -28 -24 -21 -24 12 0 24 4 30 21 30 13 0 19 -5 15 -12z m-561 -18 c3
-5 1 -10 -6 -10 -19 0 -199 -91 -199 -101 0 -5 -8 -9 -17 -9 -27 0 23 46 81
75 28 14 62 32 76 40 29 17 56 19 65 5z m69 -55 c-4 -8 -11 -15 -16 -15 -6 0
-5 6 2 15 7 8 14 15 16 15 2 0 1 -7 -2 -15z m111 -25 c-3 -5 -13 -10 -21 -10
-8 0 -12 5 -9 10 3 6 13 10 21 10 8 0 12 -4 9 -10z m-429 -32 c4 -6 -2 -7 -17
-3 -35 10 -45 23 -15 18 15 -3 29 -10 32 -15z m354 5 c-41 -18 -150 -36 -182
-31 -13 2 9 8 47 12 39 5 88 14 110 21 55 18 67 17 25 -2z m-397 -67 c3 3 17
-2 32 -12 l26 -17 -58 -29 c-32 -17 -68 -36 -80 -44 -26 -17 -123 -54 -140
-54 -7 0 -13 5 -13 12 0 20 32 48 56 48 12 0 24 3 26 8 6 13 98 52 123 52 14
0 25 5 25 10 0 6 -6 10 -14 10 -7 0 -19 7 -26 15 -11 14 -10 14 12 6 14 -5 28
-7 31 -5z m-156 -28 c-3 -7 -5 -2 -5 12 0 14 2 19 5 13 2 -7 2 -19 0 -25z
m-177 -44 c0 -2 -9 -4 -20 -4 -11 0 -20 4 -20 9 0 5 9 7 20 4 11 -3 20 -7 20
-9z m1255 -54 c3 -5 -3 -10 -15 -10 -12 0 -18 5 -15 10 3 6 10 10 15 10 5 0
12 -4 15 -10z m-58 -46 c-3 -3 -12 -4 -19 -1 -8 3 -5 6 6 6 11 1 17 -2 13 -5z
m38 -14 c-3 -5 -10 -10 -16 -10 -5 0 -9 5 -9 10 0 6 7 10 16 10 8 0 12 -4 9
-10z m439 -4 c-3 -8 -1 -17 5 -21 13 -7 15 -35 3 -35 -5 0 -15 12 -22 26 -12
22 -12 27 0 34 20 13 20 12 14 -4z m-504 -47 c0 -7 -53 -19 -59 -14 -1 2 0 8
3 13 6 11 56 11 56 1z m590 -15 c0 -8 -5 -14 -12 -14 -6 0 -8 -3 -5 -6 8 -8
-44 -55 -56 -51 -5 1 -8 6 -8 10 1 4 1 17 2 30 0 12 3 16 6 9 7 -17 23 -5 23
18 0 20 17 30 38 22 6 -2 12 -10 12 -18z"/>
<path d="M1346 1491 c-3 -5 1 -11 9 -15 8 -3 15 -1 15 4 0 13 -18 22 -24 11z"/>
<path d="M1880 2769 c0 -12 8 -23 20 -26 11 -3 20 -9 20 -14 0 -5 11 -9 25 -9
38 0 31 32 -11 53 -45 22 -54 22 -54 -4z"/>
<path d="M2117 2606 c-6 -14 29 -54 38 -44 6 6 -18 58 -26 58 -4 0 -9 -6 -12
-14z"/>
<path d="M2100 2360 c0 -5 5 -10 10 -10 6 0 10 5 10 10 0 6 -4 10 -10 10 -5 0
-10 -4 -10 -10z"/>
<path d="M2300 2120 c0 -5 14 -10 30 -10 17 0 30 5 30 10 0 6 -13 10 -30 10
-16 0 -30 -4 -30 -10z"/>
<path d="M2353 1550 c0 -25 2 -35 4 -22 2 12 2 32 0 45 -2 12 -4 2 -4 -23z"/>
<path d="M2351 1404 c0 -11 3 -14 6 -6 3 7 2 16 -1 19 -3 4 -6 -2 -5 -13z"/>
<path d="M2345 1331 c-3 -6 -3 -28 1 -50 4 -26 3 -41 -4 -41 -6 0 -10 -21 -10
-47 1 -27 4 -39 7 -28 3 11 8 -52 11 -140 6 -157 6 -156 8 78 1 130 0 237 -2
237 -3 0 -7 -4 -11 -9z"/>
<path d="M1585 1270 c-3 -5 -1 -10 4 -10 6 0 11 5 11 10 0 6 -2 10 -4 10 -3 0
-8 -4 -11 -10z"/>
<path d="M1758 1183 c7 -3 16 -2 19 1 4 3 -2 6 -13 5 -11 0 -14 -3 -6 -6z"/>
<path d="M1828 1183 c7 -3 16 -2 19 1 4 3 -2 6 -13 5 -11 0 -14 -3 -6 -6z"/>
<path d="M1675 1044 c63 -24 84 -26 40 -4 -22 11 -49 19 -60 19 -12 0 -3 -6
20 -15z"/>
<path d="M1183 1023 c9 -2 25 -2 35 0 9 3 1 5 -18 5 -19 0 -27 -2 -17 -5z"/>
<path d="M845 979 c-12 -19 5 -23 22 -6 16 16 16 17 1 17 -9 0 -20 -5 -23 -11z"/>
<path d="M435 970 c-4 -6 5 -10 20 -10 15 0 24 -4 20 -10 -8 -12 15 -13 34 -1
11 7 10 11 -7 20 -26 14 -59 14 -67 1z"/>
<path d="M528 973 c7 -3 16 -2 19 1 4 3 -2 6 -13 5 -11 0 -14 -3 -6 -6z"/>
<path d="M1669 948 c-8 -33 -4 -40 26 -52 19 -8 41 -28 49 -44 8 -16 23 -32
32 -36 14 -6 16 0 12 39 -6 51 -25 82 -42 65 -16 -16 -34 -12 -32 7 0 12 -7
19 -21 21 -13 2 -23 2 -24 0z"/>
<path d="M953 933 c9 -2 23 -2 30 0 6 3 -1 5 -18 5 -16 0 -22 -2 -12 -5z"/>
<path d="M1013 933 c9 -2 25 -2 35 0 9 3 1 5 -18 5 -19 0 -27 -2 -17 -5z"/>
<path d="M1088 933 c6 -2 18 -2 25 0 6 3 1 5 -13 5 -14 0 -19 -2 -12 -5z"/>
<path d="M1245 930 c3 -5 10 -10 16 -10 5 0 9 5 9 10 0 6 -7 10 -16 10 -8 0
-12 -4 -9 -10z"/>
<path d="M940 906 c0 -2 7 -7 16 -10 8 -3 12 -2 9 4 -6 10 -25 14 -25 6z"/>
<path d="M1025 900 c-3 -5 -1 -10 4 -10 6 0 11 5 11 10 0 6 -2 10 -4 10 -3 0
-8 -4 -11 -10z"/>
<path d="M1103 893 c9 -2 25 -2 35 0 9 3 1 5 -18 5 -19 0 -27 -2 -17 -5z"/>
<path d="M1178 893 c6 -2 18 -2 25 0 6 3 1 5 -13 5 -14 0 -19 -2 -12 -5z"/>
<path d="M1255 890 c3 -5 12 -7 20 -3 21 7 19 13 -6 13 -11 0 -18 -4 -14 -10z"/>
<path d="M1448 883 c7 -3 16 -2 19 1 4 3 -2 6 -13 5 -11 0 -14 -3 -6 -6z"/>
<path d="M923 873 c9 -2 23 -2 30 0 6 3 -1 5 -18 5 -16 0 -22 -2 -12 -5z"/>
<path d="M980 869 c0 -5 35 -9 78 -8 89 1 86 5 -10 12 -38 3 -68 1 -68 -4z"/>
<path d="M1150 862 c0 -10 120 -13 137 -3 9 5 -15 8 -61 9 -42 0 -76 -2 -76
-6z"/>
<path d="M718 853 c7 -3 16 -2 19 1 4 3 -2 6 -13 5 -11 0 -14 -3 -6 -6z"/>
<path d="M2354 625 c0 -132 2 -185 3 -117 2 68 2 176 0 240 -1 64 -3 9 -3
-123z"/>
<path d="M1335 840 c-3 -5 1 -10 9 -10 8 0 18 5 21 10 3 6 -1 10 -9 10 -8 0
-18 -4 -21 -10z"/>
<path d="M1388 792 c-11 -2 -18 -13 -18 -27 0 -13 -5 -25 -12 -27 -8 -3 -8 -9
-1 -22 9 -16 13 -13 33 28 25 49 25 54 -2 48z"/>
<path d="M1224 757 c-11 -12 -12 -17 -4 -11 8 6 22 13 30 16 9 3 10 7 3 11 -6
4 -19 -3 -29 -16z"/>
<path d="M731 763 c-13 -5 -58 -49 -89 -87 -11 -14 -11 -17 2 -22 26 -10 71
28 67 58 0 3 15 2 34 -3 54 -15 70 3 38 41 -18 20 -27 23 -52 13z"/>
<path d="M1030 710 c-9 -6 -10 -10 -3 -10 6 0 15 5 18 10 8 12 4 12 -15 0z"/>
<path d="M1796 712 c-3 -5 1 -25 9 -43 l14 -34 0 30 c1 34 -13 63 -23 47z"/>
<path d="M1793 570 c0 -16 4 -27 8 -25 3 3 6 -3 5 -13 -1 -11 6 -17 20 -17 12
-1 29 -9 39 -18 27 -28 29 -12 3 25 -21 30 -65 78 -72 78 -1 0 -3 -13 -3 -30z"/>
<path d="M2173 540 c0 -25 2 -35 4 -22 2 12 2 32 0 45 -2 12 -4 2 -4 -23z"/>
<path d="M372 530 c-6 -11 -12 -28 -12 -37 1 -13 5 -10 16 10 18 33 15 57 -4
27z"/>
<path d="M2117 397 c-3 -7 -5 -54 -6 -105 -1 -105 -4 -115 -34 -131 -19 -10
-15 -11 23 -6 24 3 47 10 50 15 3 6 19 11 36 12 35 3 67 30 62 54 -4 25 -28
30 -28 6 0 -11 6 -23 13 -26 6 -3 1 -4 -13 -3 -23 2 -25 7 -31 62 l-6 60 -1
-57 c-4 -119 -32 -58 -32 70 0 46 -4 62 -14 62 -8 0 -16 -6 -19 -13z"/>
<path d="M2353 200 c0 -30 2 -43 4 -27 2 15 2 39 0 55 -2 15 -4 2 -4 -28z"/>
<path d="M2003 103 c-7 -2 -13 -11 -13 -19 0 -8 -4 -14 -8 -14 -5 0 -16 -16
-25 -35 l-17 -35 40 0 40 0 0 55 c0 30 -1 55 -2 54 -2 0 -9 -3 -15 -6z m4 -35
c-3 -8 -6 -5 -6 6 -1 11 2 17 5 13 3 -3 4 -12 1 -19z"/>
</g>
</svg>
