<svg width="76" height="111" viewBox="0 0 76 111" fill="none" xmlns="http://www.w3.org/2000/svg">
<g clip-path="url(#clip0_1_344)">
<path d="M36.7222 42.8089C36.7222 42.8089 30.8036 44.4623 27.7546 46.9201L23.9434 46.8754C23.9434 46.8754 27.2166 47.4116 27.3959 48.0819C27.5753 48.7522 28.0236 54.7401 28.0236 54.7401C28.0236 54.7401 26.4543 57.2425 24.9298 59.3874C26.544 57.6 28.6065 55.9019 28.7859 55.8126C29.0997 55.7232 37.3947 57.4213 37.5741 57.6447C37.7086 57.8234 39.9505 61.9345 41.0714 64.437C40.4437 62.6048 39.3676 59.3428 39.0537 58.4937C38.5157 57.0638 38.6502 57.1978 39.0537 56.4382C39.4124 55.6785 41.8337 52.6399 43.4478 49.914C43.5823 49.6906 43.5375 49.3778 43.3582 49.199C41.8785 47.7244 37.5741 43.2558 37.5741 43.0771C37.5292 42.8536 39.4124 39.9044 39.9505 39.6809C41.9682 38.8766 45.8242 39.6809 46.8107 39.815C43.7617 38.5191 40.5334 37.9382 37.3051 37.9829L38.6054 39.0553C38.8295 39.1894 38.9192 39.5022 38.7399 39.7256L36.7222 42.8089ZM38.0673 55.7232C37.8431 55.8573 36.9912 55.6338 36.9912 55.5445C37.3499 55.3657 38.9192 54.2932 38.9192 54.2932C38.9192 54.2932 38.2915 55.5891 38.0673 55.7232ZM41.9682 49.5565L39.1434 53.6676L40.5782 49.6906C38.426 48.5288 30.8484 50.2268 30.6242 52.9974L36.6773 55.4551L29.5481 54.0251C29.4136 53.2655 29.0549 49.1097 29.0101 47.8138C29.0101 47.5903 29.0998 47.3669 29.2791 47.2329C30.0862 46.6073 32.5971 44.9092 36.0048 44.1495C36.229 44.1048 36.498 44.1495 36.6773 44.3283L41.9682 49.5565ZM41.9682 49.5565C41.9682 49.5565 41.9233 49.5118 41.8785 49.4672C41.9233 49.5565 41.9682 49.5565 41.9682 49.5565ZM57.9753 49.6459C56.4956 47.635 54.7918 44.7751 50.1735 42.0493C50.6219 42.3174 52.3257 43.7027 54.0295 46.6966C54.3434 47.2329 52.6396 50.2268 52.5051 50.3609C52.4154 50.4502 47.3487 49.914 44.9275 49.6906C47.3936 50.2268 52.0567 50.9865 52.4602 51.478C54.7469 54.3379 56.2714 59.2534 56.1369 60.1918C56.0472 60.9068 51.8325 66.8947 51.1599 67.1181C50.1287 67.4756 42.3717 66.5819 41.6992 66.2244C41.6992 66.2691 41.6992 66.2691 41.6992 66.2691C41.744 66.6713 36.6325 73.0614 36.6325 73.0614C36.3635 73.3742 36.0048 73.5529 35.9151 73.6423C36.8567 75.1616 40.8921 78.6471 41.9233 79.5408C40.085 78.6918 37.2602 76.949 35.6461 75.8319C34.8838 75.3403 34.0319 75.0275 33.1351 74.9829C30.6242 74.8488 27.8443 74.0445 27.3959 74.1785C26.8579 74.3573 23.9882 76.2341 23.9882 76.2341C23.9882 75.7872 25.7818 74.0445 26.6337 73.1954C26.8579 72.972 27.1717 72.8826 27.4856 72.9273C29.6826 73.2848 31.8349 73.5529 33.3593 73.4635C31.521 73.1507 29.4584 72.5698 28.2927 72.2123C27.7098 72.0336 27.2614 71.6761 26.9475 71.1399C25.5127 68.6374 24.2124 65.8222 23.4502 64.0348C23.1812 63.3645 23.1363 62.6495 23.4054 61.9792L23.7192 61.1302L23.2708 61.7111C22.9121 62.1133 22.3741 62.3367 21.836 62.292C20.3115 62.1133 17.8006 61.7558 17.711 61.7111C17.711 61.7111 17.6661 61.5771 17.5764 61.3536C15.1104 52.2377 21.5222 46.1157 21.5222 46.1157C21.0738 46.9201 20.4909 47.9925 20.0425 49.199C20.6254 48.4841 21.0738 47.9031 21.8809 47.3669C22.5086 46.9647 22.957 46.3391 23.226 45.6688C23.495 44.9092 23.9882 43.8814 24.616 43.0771C25.3334 42.1833 26.4095 40.9768 29.2343 39.815C25.1092 41.1556 22.2844 43.3452 19.4148 47.1435C11.7924 57.2872 13.9894 71.6761 24.2573 79.3621C34.5251 87.0034 49.0077 84.9925 56.6301 74.8935C62.2797 67.2969 62.5039 57.3766 57.9753 49.6459ZM16.2313 64.9732C16.2313 64.9732 15.3346 60.9961 15.9623 56.6616C15.9623 56.6616 16.052 60.594 16.8142 62.6942L16.2313 64.9732ZM17.1729 65.5094L18.0248 62.873L21.9705 63.5879C21.9705 63.5879 23.3605 67.2522 25.2885 70.9611C25.2885 70.9611 22.1051 69.978 19.2803 65.6882C19.0561 65.3754 18.8767 65.0626 18.7422 64.7498C18.5629 64.437 18.1593 64.3476 17.8903 64.6157L17.1729 65.5094ZM18.8319 71.0058C22.6879 75.2063 25.6024 78.6471 25.9163 78.9599C20.0425 75.4744 18.8319 71.0058 18.8319 71.0058ZM39.5918 75.9213L37.4396 73.7317C37.4396 73.7317 41.9682 67.8331 42.3717 67.6097C45.9139 68.1012 50.8012 68.4587 50.8012 68.4587C50.8012 68.4587 48.2455 70.6036 43.6272 72.3017C41.9682 72.9273 40.8024 73.3295 39.8608 73.5529C39.3228 73.687 39.0089 74.2679 39.1882 74.7594L39.5918 75.9213ZM50.0838 78.6471C48.5145 79.8536 45.7346 80.8814 45.1068 80.8814C44.2549 80.8814 43.0891 80.3005 43.0891 80.3005C47.6177 79.5855 51.2944 77.4853 51.2944 77.4853C51.0702 77.8428 50.6219 78.2449 50.0838 78.6471ZM53.7605 50.9865C53.8054 50.8077 54.9263 47.9478 54.9263 47.9478C55.1056 47.9478 56.5853 48.9309 57.1682 50.1821C57.1682 50.1821 56.4059 49.0203 55.554 49.065C55.3298 49.065 55.1953 49.3778 55.1953 49.78C55.1953 50.4056 55.6437 51.7461 56.3611 53.3995C57.213 55.3657 57.8856 57.8234 58.2443 58.4044C58.6927 59.03 60.0826 59.9237 60.0826 59.9237L57.7511 59.5662C57.3924 59.5215 57.1233 59.2534 57.0337 58.9406C55.9576 54.7401 53.7157 51.1205 53.7605 50.9865ZM58.2891 61.6664C57.9304 61.8005 57.6166 62.1133 57.3924 62.4708C55.3747 65.9563 53.5812 67.8778 53.3121 68.4587C52.9534 69.3524 52.1015 74.3573 51.5186 76.3681C51.6083 74.8041 52.1015 68.4587 52.236 68.0565C52.4154 67.565 57.1682 60.7727 57.1682 60.7727C57.1682 60.728 60.0378 60.7727 60.0378 60.7727C60.0378 60.7727 59.141 61.3089 58.2891 61.6664Z" fill="white"/>
<path fill-rule="evenodd" clip-rule="evenodd" d="M60.3068 8.44565L61.3381 11.5737H64.6561L61.9658 13.4952L62.9971 16.6232L60.3517 14.7017L57.6614 16.6232L58.6927 13.4952L56.0024 11.5737H59.3204L60.3068 8.44565ZM15.6933 8.44565L16.7245 11.5737H20.0425L17.3523 13.4952L18.3835 16.6232L15.6933 14.657L13.003 16.5785L14.0343 13.4505L11.344 11.529H14.662L15.6933 8.44565ZM38.5605 0L39.5918 3.12802H42.9098L40.2195 5.04952L41.2508 8.17754L38.5605 6.25604L35.8702 8.17754L36.9015 5.04952L34.2113 3.12802H37.5292L38.5605 0Z" fill="white"/>
<path fill-rule="evenodd" clip-rule="evenodd" d="M54.9258 20.377C61.2927 22.7006 68.0632 23.9965 74.9683 24.0859L75.9995 25.1137V41.3794L54.9258 20.377Z" fill="#F4DDCC"/>
<path fill-rule="evenodd" clip-rule="evenodd" d="M28.0685 17.3381C31.5658 15.5507 34.839 13.4057 37.9328 10.9033L75.9552 48.797V65.0627L64.2077 53.355C62.9074 48.8864 60.4862 44.9094 57.3027 41.692C54.0744 38.4746 50.0838 36.1062 45.6 34.8103L28.0685 17.3381Z" fill="#E9BB99"/>
<path fill-rule="evenodd" clip-rule="evenodd" d="M65.2842 61.8008L76.0004 72.4807V80.6136C75.1485 82.4457 74.2069 84.2332 73.1756 85.9312L61.6523 74.4469C63.8494 70.738 65.1497 66.4034 65.2842 61.8008Z" fill="#DF9A66"/>
<path fill-rule="evenodd" clip-rule="evenodd" d="M10.2676 23.2817C14.6168 22.5667 18.8764 21.3602 23.0015 19.6621L37.1254 33.7382C32.5071 33.8723 28.1578 35.1681 24.3915 37.3578L10.2676 23.2817Z" fill="#DF9A66"/>
<path fill-rule="evenodd" clip-rule="evenodd" d="M58.5586 78.8262L70.1716 90.3998C67.84 93.4832 65.2394 96.3431 62.325 98.8455L49.1875 85.7525C52.2365 84.4119 54.9716 82.4904 57.2583 80.1668C57.7515 79.7199 58.1551 79.273 58.5586 78.8262Z" fill="#D47833"/>
<path fill-rule="evenodd" clip-rule="evenodd" d="M0 36.7321V24.086C1.21062 24.086 2.3764 24.0413 3.58702 23.9966L20.0873 40.441C19.5941 40.8432 19.1457 41.2901 18.7422 41.6922C16.4106 44.0159 14.5274 46.7418 13.1375 49.7357L0 36.7321Z" fill="#D47833"/>
<path fill-rule="evenodd" clip-rule="evenodd" d="M43.5823 87.5846L58.1994 102.152C54.9262 104.476 51.4289 106.442 47.7073 107.961L23.9882 84.3225C28.0684 86.7802 32.866 88.1655 38.0224 88.1655C39.9056 88.1655 41.7887 87.9421 43.5823 87.5846Z" fill="#C95600"/>
<path fill-rule="evenodd" clip-rule="evenodd" d="M0 60.4154V44.105L11.2543 55.3212C10.8956 57.1086 10.6714 58.9854 10.6714 60.9069C10.6714 66.0011 12.0614 70.7825 14.5274 74.8489L0 60.4154Z" fill="#C95600"/>
<path fill-rule="evenodd" clip-rule="evenodd" d="M0 67.7886L42.2372 109.883C40.8472 110.285 39.4124 110.642 37.9776 110.955C31.0277 109.481 24.5711 106.71 18.8319 102.867L4.43894 88.4782C2.77994 86.0205 1.30029 83.384 0 80.6581V67.7886Z" fill="#974000"/>
</g>
<defs>
<clipPath id="clip0_1_344">
<rect width="76" height="111" fill="white"/>
</clipPath>
</defs>
</svg>
