<svg width="630" height="403" viewBox="0 0 630 403" fill="none" xmlns="http://www.w3.org/2000/svg">
<path d="M459.188 383.6L459.148 383.633L459.115 383.674C456.63 386.791 454.471 390.153 452.671 393.708C450.373 396.975 447.177 399.509 443.469 401.001C439.832 402.465 435.857 402.866 432.004 402.162C429.874 396.768 431.686 390.888 433.568 384.779L433.57 384.773C435.454 378.659 437.409 372.311 434.856 366.449C434.013 364.488 432.139 362.919 429.701 361.617C427.252 360.309 424.163 359.232 420.784 358.292C416.628 357.136 411.963 356.169 407.459 355.236C404.667 354.658 401.937 354.092 399.427 353.502C396.126 352.726 393.199 351.906 390.954 350.958C388.678 349.996 387.235 348.954 386.718 347.81C386.239 346.751 386.485 345.405 388.172 343.588C389.857 341.773 392.878 339.612 397.61 337.021C400.875 335.34 405.774 334.083 411.909 332.62C412.583 332.459 413.272 332.296 413.975 332.129C419.639 330.786 426.191 329.233 433.271 327.024C449.175 322.062 467.768 313.785 485.147 297.102C486.62 296.486 487.824 296.061 488.794 295.804C489.79 295.54 490.504 295.463 490.993 295.515C491.467 295.566 491.665 295.727 491.761 295.897C491.875 296.099 491.923 296.448 491.817 297.013C491.605 298.139 490.851 299.759 489.742 301.763C488.899 303.287 487.875 304.993 486.777 306.822C486.442 307.38 486.099 307.951 485.753 308.53C482.81 313.462 479.595 319.091 478.198 324.127C477.498 326.649 477.24 329.068 477.733 331.202C478.232 333.357 479.489 335.182 481.736 336.499L481.75 336.507L481.765 336.515C484.717 337.991 487.946 338.837 491.243 338.998C505.181 340.158 519.176 337.58 531.782 331.528L531.782 331.528C533.641 330.631 535.718 329.7 537.704 329.321C539.673 328.946 541.468 329.131 542.873 330.348C543.92 331.503 544.5 333.005 544.5 334.564C544.5 336.129 543.915 337.638 542.859 338.795C540.525 341.19 537.571 342.891 534.326 343.708L534.306 343.712L534.287 343.719C523.704 347.305 512.795 349.847 501.715 351.31L501.239 351.373L501.283 351.851C501.383 352.948 501.506 354.035 501.628 355.117C501.893 357.449 502.154 359.76 502.176 362.113L465.71 379.753C463.348 380.686 461.147 381.984 459.188 383.6Z" fill="url(#paint0_linear_1_123)" stroke="#C95600"/>
<mask id="path-2-inside-1_1_123" fill="white">
<path d="M627.343 144.612C625.911 141.588 624.24 138.683 622.347 135.923C620.624 133.338 619.063 130.649 617.671 127.873C615.715 124.601 614.646 120.879 614.567 117.071C614.489 113.262 615.404 109.499 617.222 106.15C618.119 104.745 619.272 103.339 620.425 101.87C623.756 97.7806 625.101 95.4804 624.012 94.5859C623.328 93.9743 622.519 93.5168 621.642 93.2443C599.621 84.3663 575.442 82.2528 552.208 87.1748L540.999 89.7304L549.262 81.7441C548.604 81.158 547.833 80.7136 546.995 80.4387C546.157 80.1639 545.272 80.0645 544.394 80.1468C543.241 80.1468 542.088 80.9773 540.935 81.4245C539.018 82.5569 536.864 83.2326 534.642 83.3989C532.42 83.5651 530.19 83.2175 528.124 82.383C525.835 80.9127 523.978 78.862 522.744 76.4411C521.399 74.3327 520.502 73.055 519.477 72.9272H517.62C515.811 73.5265 513.856 73.5265 512.047 72.9272C510.058 71.9131 508.509 70.209 507.691 68.1354C507.466 67.5774 507.187 67.0425 506.859 66.5381C506.597 66.1844 506.26 65.8923 505.873 65.6826C505.486 65.4728 505.057 65.3505 504.617 65.3242C501.78 65.2248 499.003 66.1556 496.802 67.9437L494.176 69.9883C490.736 73.4775 486.229 75.7253 481.366 76.3773H479.764L478.739 75.0994C473.871 68.7104 463.623 68.7104 454.271 69.541L451.068 69.8604V66.6658C450.3 57.4656 447.802 46.2209 439.795 44.6875C436.741 44.3767 433.656 44.7478 430.763 45.7737L428.073 46.4127C421.766 47.8466 415.239 48.0419 408.857 46.9877C406.122 46.8092 403.475 45.9496 401.159 44.4875C398.843 43.0253 396.931 41.0074 395.598 38.618C394.506 35.8151 394.132 32.7847 394.509 29.8011L395.79 3.15873C387.002 0.59754 377.834 -0.418577 368.696 0.155869C365.557 0.155869 362.291 0.794859 359.344 1.24209C349.541 2.72752 339.847 4.86191 330.328 7.63114C330.457 7.78631 330.565 7.95816 330.648 8.14217L324.755 10.634C324.393 9.84604 323.918 9.11443 323.346 8.46174L317.838 8.84507C318.464 12.2499 318.154 15.7603 316.941 19.0036C315.641 22.3423 313.382 25.2242 310.448 27.289C307.514 29.3538 304.035 30.5098 300.446 30.612C296.856 30.7143 293.317 29.7586 290.269 27.8642C287.222 25.9699 284.802 23.2211 283.313 19.9619C281.208 19.4525 279.012 19.4525 276.908 19.9619C279.838 30.7914 280.384 42.1251 278.509 53.1851V54.4627L277.42 55.2296C263.264 65.3243 244.753 65.6436 229.893 65.8992L207.026 66.2825C200.506 66.9924 193.93 65.6044 188.258 62.3213C186.641 61.4288 184.947 60.6804 183.198 60.0851C176.821 58.6945 170.188 59.0253 163.982 61.0435C159.004 62.3548 153.885 63.0629 148.737 63.1519C139.425 62.242 130.444 59.2267 122.475 54.335C119.721 52.8656 117.031 51.4599 114.276 50.246C104.925 46.0292 91.5377 43.8569 84.62 51.6516L78.2147 58.8074L79.0472 49.2239C79.0472 49.2239 79.0473 48.585 78.3427 48.0099C77.6933 47.5913 76.9509 47.3374 76.1806 47.2706C75.4102 47.2038 74.6352 47.3261 73.923 47.6266C71.5145 49.1078 69.477 51.1181 67.9661 53.5044C67.3256 54.3989 66.6851 55.2294 65.9805 56.06C60.6956 62.3475 53.421 66.6517 45.3553 68.2631C45.2989 68.623 45.2989 68.9895 45.3553 69.3493C45.8604 73.7214 47.5921 77.8626 50.3515 81.2968C63.9308 102.381 66.7492 119.631 58.8066 132.026C54.8497 137.515 49.8155 142.145 44.0101 145.635C35.5739 150.107 29.2619 157.736 26.4596 166.846L21.015 180.455C14.0332 197.897 6.85927 215.914 0.838269 234.123C0.125216 235.772 -0.139858 237.578 0.069662 239.362C0.582088 241.215 2.7599 242.684 6.47498 243.962C20.0629 247.731 34.1392 249.454 48.2376 249.073C74.1308 249.068 99.9322 246.001 125.101 239.937C129.329 238.914 133.877 237.381 135.35 234.187C135.75 233.29 136.03 232.345 136.183 231.375C136.518 229.532 137.168 227.76 138.104 226.137C139.908 224.051 142.188 222.428 144.752 221.405C147.316 220.382 150.089 219.989 152.837 220.259H153.797C161.434 219.286 168.895 217.242 175.96 214.189C182.608 211.33 189.544 209.188 196.649 207.8C201.934 207.105 207.309 207.65 212.347 209.392C217.384 211.133 221.944 214.023 225.665 217.831C228.978 221.266 230.836 225.842 230.853 230.609C236.305 230.236 241.775 230.975 246.931 232.781C250.539 234.037 253.655 236.402 255.83 239.536C258.006 242.671 259.128 246.412 259.037 250.223C258.836 252.031 258.428 253.811 257.82 255.526C257.083 257.281 256.797 259.191 256.987 261.084C257.788 262.887 259.02 264.466 260.574 265.685C277.319 281.4 290.433 300.564 299.006 321.844L297.084 322.611C301.12 324.911 304.771 329 309.447 329C319.759 328.553 317.581 312.516 312.073 303.827L350.505 288.877C351.114 280.302 354.905 272.261 361.138 266.323C366.04 273.179 368.649 281.403 368.591 289.823C368.534 298.244 365.813 306.431 360.817 313.219C362.291 321.205 374.717 319.225 380.93 313.922C387.143 308.619 395.598 301.783 402.26 306.511C405.014 308.491 406.231 311.814 408.665 314.369C410.799 316.887 413.798 318.518 417.075 318.945C420.353 319.371 423.671 318.561 426.381 316.674C429.091 314.787 430.996 311.958 431.724 308.743C432.452 305.527 431.949 302.156 430.315 299.291C432.585 297.537 435.189 296.261 437.968 295.54C440.748 294.82 443.645 294.67 446.484 295.101C449.323 295.531 452.045 296.532 454.485 298.043C456.925 299.554 459.031 301.544 460.676 303.891C466.246 300.921 470.839 296.412 473.906 290.905C476.973 285.398 478.384 279.127 477.971 272.84C479.889 272.716 481.812 272.991 483.618 273.648C485.423 274.306 487.072 275.332 488.458 276.66C489.844 277.989 490.937 279.591 491.668 281.364C492.399 283.137 492.752 285.043 492.703 286.96C508.396 289.516 512.688 260.254 528.573 259.551C532.096 259.551 535.555 260.829 539.077 260.509C547.789 259.743 551.888 249.84 556.564 242.62C561.929 234.937 569.466 229.02 578.214 225.625C573.684 217.314 572.255 207.671 574.179 198.408L574.563 196.555L576.356 196.044C591.585 191.176 605.304 182.486 616.198 170.807L618.824 167.996L621.13 171.127C621.274 171.357 621.491 171.532 621.746 171.625C622.001 171.717 622.28 171.722 622.539 171.638C624.031 171.142 625.386 170.307 626.498 169.198C627.61 168.089 628.447 166.737 628.944 165.249C630.777 158.388 630.212 151.11 627.343 144.612Z"/>
</mask>
<path d="M627.343 144.612C625.911 141.588 624.24 138.683 622.347 135.923C620.624 133.338 619.063 130.649 617.671 127.873C615.715 124.601 614.646 120.879 614.567 117.071C614.489 113.262 615.404 109.499 617.222 106.15C618.119 104.745 619.272 103.339 620.425 101.87C623.756 97.7806 625.101 95.4804 624.012 94.5859C623.328 93.9743 622.519 93.5168 621.642 93.2443C599.621 84.3663 575.442 82.2528 552.208 87.1748L540.999 89.7304L549.262 81.7441C548.604 81.158 547.833 80.7136 546.995 80.4387C546.157 80.1639 545.272 80.0645 544.394 80.1468C543.241 80.1468 542.088 80.9773 540.935 81.4245C539.018 82.5569 536.864 83.2326 534.642 83.3989C532.42 83.5651 530.19 83.2175 528.124 82.383C525.835 80.9127 523.978 78.862 522.744 76.4411C521.399 74.3327 520.502 73.055 519.477 72.9272H517.62C515.811 73.5265 513.856 73.5265 512.047 72.9272C510.058 71.9131 508.509 70.209 507.691 68.1354C507.466 67.5774 507.187 67.0425 506.859 66.5381C506.597 66.1844 506.26 65.8923 505.873 65.6826C505.486 65.4728 505.057 65.3505 504.617 65.3242C501.78 65.2248 499.003 66.1556 496.802 67.9437L494.176 69.9883C490.736 73.4775 486.229 75.7253 481.366 76.3773H479.764L478.739 75.0994C473.871 68.7104 463.623 68.7104 454.271 69.541L451.068 69.8604V66.6658C450.3 57.4656 447.802 46.2209 439.795 44.6875C436.741 44.3767 433.656 44.7478 430.763 45.7737L428.073 46.4127C421.766 47.8466 415.239 48.0419 408.857 46.9877C406.122 46.8092 403.475 45.9496 401.159 44.4875C398.843 43.0253 396.931 41.0074 395.598 38.618C394.506 35.8151 394.132 32.7847 394.509 29.8011L395.79 3.15873C387.002 0.59754 377.834 -0.418577 368.696 0.155869C365.557 0.155869 362.291 0.794859 359.344 1.24209C349.541 2.72752 339.847 4.86191 330.328 7.63114C330.457 7.78631 330.565 7.95816 330.648 8.14217L324.755 10.634C324.393 9.84604 323.918 9.11443 323.346 8.46174L317.838 8.84507C318.464 12.2499 318.154 15.7603 316.941 19.0036C315.641 22.3423 313.382 25.2242 310.448 27.289C307.514 29.3538 304.035 30.5098 300.446 30.612C296.856 30.7143 293.317 29.7586 290.269 27.8642C287.222 25.9699 284.802 23.2211 283.313 19.9619C281.208 19.4525 279.012 19.4525 276.908 19.9619C279.838 30.7914 280.384 42.1251 278.509 53.1851V54.4627L277.42 55.2296C263.264 65.3243 244.753 65.6436 229.893 65.8992L207.026 66.2825C200.506 66.9924 193.93 65.6044 188.258 62.3213C186.641 61.4288 184.947 60.6804 183.198 60.0851C176.821 58.6945 170.188 59.0253 163.982 61.0435C159.004 62.3548 153.885 63.0629 148.737 63.1519C139.425 62.242 130.444 59.2267 122.475 54.335C119.721 52.8656 117.031 51.4599 114.276 50.246C104.925 46.0292 91.5377 43.8569 84.62 51.6516L78.2147 58.8074L79.0472 49.2239C79.0472 49.2239 79.0473 48.585 78.3427 48.0099C77.6933 47.5913 76.9509 47.3374 76.1806 47.2706C75.4102 47.2038 74.6352 47.3261 73.923 47.6266C71.5145 49.1078 69.477 51.1181 67.9661 53.5044C67.3256 54.3989 66.6851 55.2294 65.9805 56.06C60.6956 62.3475 53.421 66.6517 45.3553 68.2631C45.2989 68.623 45.2989 68.9895 45.3553 69.3493C45.8604 73.7214 47.5921 77.8626 50.3515 81.2968C63.9308 102.381 66.7492 119.631 58.8066 132.026C54.8497 137.515 49.8155 142.145 44.0101 145.635C35.5739 150.107 29.2619 157.736 26.4596 166.846L21.015 180.455C14.0332 197.897 6.85927 215.914 0.838269 234.123C0.125216 235.772 -0.139858 237.578 0.069662 239.362C0.582088 241.215 2.7599 242.684 6.47498 243.962C20.0629 247.731 34.1392 249.454 48.2376 249.073C74.1308 249.068 99.9322 246.001 125.101 239.937C129.329 238.914 133.877 237.381 135.35 234.187C135.75 233.29 136.03 232.345 136.183 231.375C136.518 229.532 137.168 227.76 138.104 226.137C139.908 224.051 142.188 222.428 144.752 221.405C147.316 220.382 150.089 219.989 152.837 220.259H153.797C161.434 219.286 168.895 217.242 175.96 214.189C182.608 211.33 189.544 209.188 196.649 207.8C201.934 207.105 207.309 207.65 212.347 209.392C217.384 211.133 221.944 214.023 225.665 217.831C228.978 221.266 230.836 225.842 230.853 230.609C236.305 230.236 241.775 230.975 246.931 232.781C250.539 234.037 253.655 236.402 255.83 239.536C258.006 242.671 259.128 246.412 259.037 250.223C258.836 252.031 258.428 253.811 257.82 255.526C257.083 257.281 256.797 259.191 256.987 261.084C257.788 262.887 259.02 264.466 260.574 265.685C277.319 281.4 290.433 300.564 299.006 321.844L297.084 322.611C301.12 324.911 304.771 329 309.447 329C319.759 328.553 317.581 312.516 312.073 303.827L350.505 288.877C351.114 280.302 354.905 272.261 361.138 266.323C366.04 273.179 368.649 281.403 368.591 289.823C368.534 298.244 365.813 306.431 360.817 313.219C362.291 321.205 374.717 319.225 380.93 313.922C387.143 308.619 395.598 301.783 402.26 306.511C405.014 308.491 406.231 311.814 408.665 314.369C410.799 316.887 413.798 318.518 417.075 318.945C420.353 319.371 423.671 318.561 426.381 316.674C429.091 314.787 430.996 311.958 431.724 308.743C432.452 305.527 431.949 302.156 430.315 299.291C432.585 297.537 435.189 296.261 437.968 295.54C440.748 294.82 443.645 294.67 446.484 295.101C449.323 295.531 452.045 296.532 454.485 298.043C456.925 299.554 459.031 301.544 460.676 303.891C466.246 300.921 470.839 296.412 473.906 290.905C476.973 285.398 478.384 279.127 477.971 272.84C479.889 272.716 481.812 272.991 483.618 273.648C485.423 274.306 487.072 275.332 488.458 276.66C489.844 277.989 490.937 279.591 491.668 281.364C492.399 283.137 492.752 285.043 492.703 286.96C508.396 289.516 512.688 260.254 528.573 259.551C532.096 259.551 535.555 260.829 539.077 260.509C547.789 259.743 551.888 249.84 556.564 242.62C561.929 234.937 569.466 229.02 578.214 225.625C573.684 217.314 572.255 207.671 574.179 198.408L574.563 196.555L576.356 196.044C591.585 191.176 605.304 182.486 616.198 170.807L618.824 167.996L621.13 171.127C621.274 171.357 621.491 171.532 621.746 171.625C622.001 171.717 622.28 171.722 622.539 171.638C624.031 171.142 625.386 170.307 626.498 169.198C627.61 168.089 628.447 166.737 628.944 165.249C630.777 158.388 630.212 151.11 627.343 144.612Z" fill="url(#paint1_linear_1_123)" stroke="#C95600" stroke-width="2" mask="url(#path-2-inside-1_1_123)"/>
<path d="M316 66C313.084 66.0033 310.288 67.1633 308.225 69.2255C306.163 71.2877 305.003 74.0837 305 77.0001C305 86.4127 315 93.5215 315.426 93.819C315.594 93.9368 315.795 94 316 94C316.205 94 316.406 93.9368 316.574 93.819C317 93.5215 327 86.4127 327 77.0001C326.997 74.0837 325.837 71.2877 323.775 69.2255C321.712 67.1633 318.916 66.0033 316 66ZM316 73.0001C316.791 73.0001 317.564 73.2347 318.222 73.6742C318.88 74.1137 319.393 74.7384 319.696 75.4694C319.998 76.2003 320.077 77.0045 319.923 77.7805C319.769 78.5564 319.388 79.2691 318.828 79.8286C318.269 80.388 317.556 80.7689 316.78 80.9233C316.004 81.0776 315.2 80.9984 314.469 80.6957C313.738 80.3929 313.114 79.8802 312.674 79.2224C312.235 78.5646 312 77.7912 312 77.0001C312 75.9392 312.421 74.9218 313.172 74.1717C313.922 73.4215 314.939 73.0001 316 73.0001Z" fill="#C95600"/>
<path d="M285.417 251.871C285.295 251.955 285.149 252 285 252C284.851 252 284.705 251.955 284.583 251.871C284.273 251.658 277 246.581 277 239.857L285.417 251.871ZM285.417 251.871C285.727 251.658 293 246.581 293 239.857L285.417 251.871ZM277.5 239.858C277.502 237.91 278.291 236.041 279.696 234.661C281.102 233.28 283.009 232.502 285 232.5C286.991 232.502 288.898 233.28 290.304 234.661C291.709 236.041 292.498 237.91 292.5 239.858C292.5 243.042 290.773 245.877 288.948 247.978C287.129 250.069 285.272 251.364 285.135 251.458L285.134 251.459C285.095 251.485 285.049 251.5 285 251.5C284.951 251.5 284.905 251.485 284.866 251.459L284.865 251.458C284.728 251.364 282.871 250.069 281.052 247.978C279.227 245.877 277.5 243.042 277.5 239.858ZM286.891 237.064C286.33 236.696 285.672 236.5 285 236.5C284.099 236.5 283.233 236.852 282.593 237.48C281.952 238.109 281.591 238.964 281.591 239.857C281.591 240.523 281.792 241.174 282.168 241.726C282.543 242.278 283.076 242.707 283.698 242.96C284.32 243.213 285.004 243.279 285.663 243.15C286.323 243.021 286.93 242.703 287.407 242.234C287.885 241.765 288.211 241.167 288.343 240.514C288.475 239.861 288.408 239.184 288.148 238.57C287.889 237.955 287.451 237.431 286.891 237.064Z" stroke="#C95600"/>
<path d="M80.4173 139.871C80.295 139.955 80.1493 140 80 140C79.8507 140 79.705 139.955 79.5827 139.871C79.2727 139.658 72 134.581 72 127.857L80.4173 139.871ZM80.4173 139.871C80.7273 139.658 88 134.581 88 127.857L80.4173 139.871ZM72.5 127.858C72.5023 125.91 73.2911 124.041 74.6962 122.661C76.1015 121.28 78.0087 120.502 80 120.5C81.9913 120.502 83.8985 121.28 85.3038 122.661C86.709 124.041 87.4978 125.91 87.5 127.858C87.4998 131.042 85.773 133.877 83.9475 135.978C82.1295 138.069 80.2719 139.364 80.1346 139.458L80.1339 139.459C80.0955 139.485 80.0487 139.5 80 139.5C79.9513 139.5 79.9045 139.485 79.8661 139.459L79.8654 139.458C79.7281 139.364 77.8705 138.069 76.0525 135.978C74.2269 133.877 72.5001 131.042 72.5 127.858ZM81.8905 125.064C81.3302 124.696 80.6723 124.5 80 124.5C79.0987 124.5 78.2326 124.852 77.5926 125.48C76.9523 126.109 76.5909 126.964 76.5909 127.857C76.5909 128.523 76.792 129.174 77.1678 129.726C77.5434 130.278 78.0764 130.707 78.6983 130.96C79.3201 131.213 80.0039 131.279 80.6634 131.15C81.323 131.021 81.9301 130.703 82.4074 130.234C82.8848 129.765 83.211 129.167 83.3432 128.514C83.4755 127.861 83.4075 127.184 83.1484 126.57C82.8892 125.955 82.451 125.431 81.8905 125.064Z" stroke="#C95600"/>
<path d="M299.623 107.781V122H297.738V107.781H299.623ZM308.383 107.781L302.211 115.604H298.871L298.578 114.041H301.088L306.049 107.781H308.383ZM306.488 122L301.146 115.359L302.201 113.709L308.793 122H306.488ZM311.947 119.139L316.82 111.434H318.637V122H316.82V114.295L311.947 122H310.15V111.434H311.947V119.139ZM323.49 111.434V122H321.684V111.434H323.49ZM319.477 108.631C319.477 108.338 319.568 108.09 319.75 107.889C319.932 107.687 320.196 107.586 320.541 107.586C320.893 107.586 321.16 107.687 321.342 107.889C321.524 108.09 321.615 108.338 321.615 108.631C321.615 108.911 321.524 109.152 321.342 109.354C321.16 109.549 320.893 109.646 320.541 109.646C320.196 109.646 319.932 109.549 319.75 109.354C319.568 109.152 319.477 108.911 319.477 108.631ZM323.686 108.65C323.686 108.357 323.773 108.11 323.949 107.908C324.132 107.706 324.398 107.605 324.75 107.605C325.095 107.605 325.359 107.706 325.541 107.908C325.73 108.11 325.824 108.357 325.824 108.65C325.824 108.93 325.73 109.171 325.541 109.373C325.359 109.568 325.095 109.666 324.75 109.666C324.398 109.666 324.132 109.568 323.949 109.373C323.773 109.171 323.686 108.93 323.686 108.65ZM331.459 117.352H327.992L327.973 115.906H330.805C331.365 115.906 331.83 115.851 332.201 115.74C332.579 115.63 332.862 115.464 333.051 115.242C333.24 115.021 333.334 114.747 333.334 114.422C333.334 114.168 333.279 113.947 333.168 113.758C333.064 113.562 332.904 113.403 332.689 113.279C332.475 113.149 332.208 113.055 331.889 112.996C331.576 112.931 331.208 112.898 330.785 112.898H328.471V122H326.664V111.434H330.785C331.456 111.434 332.058 111.492 332.592 111.609C333.132 111.727 333.591 111.906 333.969 112.146C334.353 112.381 334.646 112.68 334.848 113.045C335.049 113.41 335.15 113.839 335.15 114.334C335.15 114.653 335.085 114.956 334.955 115.242C334.825 115.529 334.633 115.783 334.379 116.004C334.125 116.225 333.812 116.408 333.441 116.551C333.07 116.688 332.644 116.775 332.162 116.814L331.459 117.352ZM331.459 122H327.338L328.236 120.535H331.459C331.96 120.535 332.377 120.473 332.709 120.35C333.041 120.219 333.288 120.037 333.451 119.803C333.62 119.562 333.705 119.275 333.705 118.943C333.705 118.611 333.62 118.328 333.451 118.094C333.288 117.853 333.041 117.671 332.709 117.547C332.377 117.417 331.96 117.352 331.459 117.352H328.715L328.734 115.906H332.162L332.816 116.453C333.396 116.499 333.887 116.642 334.291 116.883C334.695 117.124 335.001 117.43 335.209 117.801C335.417 118.165 335.521 118.562 335.521 118.992C335.521 119.487 335.427 119.923 335.238 120.301C335.056 120.678 334.789 120.994 334.438 121.248C334.086 121.495 333.66 121.684 333.158 121.814C332.657 121.938 332.09 122 331.459 122Z" fill="#C95600"/>
<defs>
<linearGradient id="paint0_linear_1_123" x1="545" y1="349" x2="425" y2="331" gradientUnits="userSpaceOnUse">
<stop stop-color="#C95600" stop-opacity="0.06"/>
<stop offset="1" stop-color="#1C1C1C"/>
</linearGradient>
<linearGradient id="paint1_linear_1_123" x1="315" y1="0" x2="315" y2="329" gradientUnits="userSpaceOnUse">
<stop stop-color="#C95600" stop-opacity="0.22"/>
<stop offset="1" stop-color="#272727" stop-opacity="0"/>
</linearGradient>
</defs>
</svg>
