<svg xmlns="http://www.w3.org/2000/svg">
<!-- location icon-->
	<symbol id="location" viewBox="0 0 28 28">
		<path d="M13.9993 2.33301C9.09935 2.33301 4.66602 6.08967 4.66602 11.8997C4.66602 15.6097 7.52435 19.973 13.2293 25.0013C13.6727 25.3863 14.3377 25.3863 14.781 25.0013C20.4743 19.973 23.3327 15.6097 23.3327 11.8997C23.3327 6.08967 18.8993 2.33301 13.9993 2.33301ZM13.9993 13.9997C12.716 13.9997 11.666 12.9497 11.666 11.6663C11.666 10.383 12.716 9.33301 13.9993 9.33301C15.2827 9.33301 16.3327 10.383 16.3327 11.6663C16.3327 12.9497 15.2827 13.9997 13.9993 13.9997Z" />
	</symbol>
	<!-- Phone ico -->
	<symbol id="phone" viewBox="0 0 28 28">
		<path d="M23.275 24.5C20.7667 24.5 18.3217 23.9408 15.9402 22.8223C13.5586 21.7039 11.4489 20.2261 9.611 18.389C7.77311 16.5519 6.29533 14.4422 5.17767 12.0598C4.06 9.6775 3.50078 7.23256 3.5 4.725C3.5 4.375 3.61667 4.08333 3.85 3.85C4.08333 3.61667 4.375 3.5 4.725 3.5H9.45C9.72222 3.5 9.96528 3.5875 10.1792 3.7625C10.3931 3.9375 10.5194 4.16111 10.5583 4.43333L11.3167 8.51667C11.3556 8.78889 11.3505 9.037 11.3015 9.261C11.2525 9.485 11.1409 9.68411 10.9667 9.85833L8.16667 12.7167C8.98333 14.1167 10.0042 15.4292 11.2292 16.6542C12.4542 17.8792 13.8056 18.9389 15.2833 19.8333L18.025 17.0917C18.2 16.9167 18.4287 16.7856 18.711 16.6985C18.9933 16.6114 19.2702 16.5869 19.5417 16.625L23.5667 17.4417C23.8389 17.5 24.0625 17.6314 24.2375 17.836C24.4125 18.0406 24.5 18.2786 24.5 18.55V23.275C24.5 23.625 24.3833 23.9167 24.15 24.15C23.9167 24.3833 23.625 24.5 23.275 24.5Z" />
	</symbol>
	<!-- Email -->
	<symbol id="email" viewBox="0 0 28 28">
		<path d="M25.6673 4.66699H2.33398V23.3337H25.6673V4.66699ZM23.334 9.33366L14.0007 15.167L4.66732 9.33366V7.00033L14.0007 12.8337L23.334 7.00033V9.33366Z" />
	</symbol>
	<!-- insta -->
	<symbol id="instagram" viewBox="0 0 28 28">
		<path d="M19.25 2.625H8.75C7.12608 2.62674 5.56917 3.27261 4.42089 4.42089C3.27261 5.56917 2.62674 7.12608 2.625 8.75V19.25C2.62674 20.8739 3.27261 22.4308 4.42089 23.5791C5.56917 24.7274 7.12608 25.3733 8.75 25.375H19.25C20.8739 25.3733 22.4308 24.7274 23.5791 23.5791C24.7274 22.4308 25.3733 20.8739 25.375 19.25V8.75C25.3733 7.12608 24.7274 5.56917 23.5791 4.42089C22.4308 3.27261 20.8739 2.62674 19.25 2.625ZM14 19.25C12.9616 19.25 11.9466 18.9421 11.0833 18.3652C10.2199 17.7883 9.54699 16.9684 9.14963 16.0091C8.75227 15.0498 8.64831 13.9942 8.85088 12.9758C9.05345 11.9574 9.55346 11.0219 10.2877 10.2877C11.0219 9.55346 11.9574 9.05345 12.9758 8.85088C13.9942 8.64831 15.0498 8.75227 16.0091 9.14963C16.9684 9.54699 17.7883 10.2199 18.3652 11.0833C18.9421 11.9466 19.25 12.9616 19.25 14C19.2486 15.3919 18.695 16.7265 17.7107 17.7107C16.7265 18.695 15.3919 19.2486 14 19.25ZM20.5625 8.75C20.3029 8.75 20.0492 8.67302 19.8333 8.5288C19.6175 8.38458 19.4492 8.1796 19.3499 7.93977C19.2506 7.69994 19.2246 7.43604 19.2752 7.18144C19.3259 6.92684 19.4509 6.69298 19.6344 6.50942C19.818 6.32587 20.0518 6.20086 20.3064 6.15022C20.561 6.09958 20.8249 6.12557 21.0648 6.22491C21.3046 6.32425 21.5096 6.49247 21.6538 6.70831C21.798 6.92415 21.875 7.17791 21.875 7.4375C21.875 7.7856 21.7367 8.11944 21.4906 8.36558C21.2444 8.61172 20.9106 8.75 20.5625 8.75ZM17.5 14C17.5 14.6922 17.2947 15.3689 16.9101 15.9445C16.5256 16.5201 15.9789 16.9687 15.3394 17.2336C14.6999 17.4985 13.9961 17.5678 13.3172 17.4327C12.6383 17.2977 12.0146 16.9644 11.5251 16.4749C11.0356 15.9854 10.7023 15.3617 10.5673 14.6828C10.4322 14.0039 10.5015 13.3001 10.7664 12.6606C11.0313 12.0211 11.4799 11.4744 12.0555 11.0899C12.6311 10.7053 13.3078 10.5 14 10.5C14.9283 10.5 15.8185 10.8687 16.4749 11.5251C17.1313 12.1815 17.5 13.0717 17.5 14Z" />
	</symbol>
	<!-- facebook -->
	<symbol id="facebook" viewBox="0 0 28 28">
		<path d="M14.0007 2.33301C7.55715 2.33301 2.33398 7.55617 2.33398 13.9997C2.33398 19.8225 6.60048 24.649 12.1783 25.524V17.3725H9.21498V13.9997H12.1783V11.4295C12.1783 8.50584 13.919 6.89117 16.5848 6.89117C17.8612 6.89117 19.1958 7.11867 19.1958 7.11867V9.98867H17.7258C16.2757 9.98867 15.8242 10.8882 15.8242 11.811V13.9997H19.0593L18.5425 17.3713H15.8242V25.524C21.3997 24.649 25.6662 19.8225 25.6662 13.9997C25.6662 7.55617 20.4442 2.33301 14.0007 2.33301Z" />
	</symbol>
	<!-- viber -->
	<symbol id="viber" viewBox="0 0 28 28">
		<path fill-rule="evenodd" clip-rule="evenodd" d="M19.4548 3.06556C15.7843 2.24507 11.9779 2.24507 8.30733 3.06556L7.91183 3.15306C6.87935 3.3839 5.93108 3.89645 5.17234 4.63376C4.41361 5.37107 3.87413 6.30428 3.61383 7.32973C2.68341 10.996 2.68341 14.8366 3.61383 18.5029C3.86207 19.4809 4.36447 20.3758 5.0701 21.097C5.77573 21.8182 6.65951 22.34 7.63183 22.6096L8.17433 25.8482C8.19165 25.9511 8.23622 26.0474 8.3034 26.1272C8.37059 26.2069 8.45793 26.2672 8.55633 26.3018C8.65473 26.3363 8.76059 26.3438 8.86289 26.3236C8.96519 26.3033 9.06019 26.256 9.138 26.1866L12.3242 23.3364C14.7159 23.4824 17.1163 23.2911 19.4548 22.7682L19.8515 22.6807C20.884 22.4499 21.8323 21.9373 22.591 21.2C23.3497 20.4627 23.8892 19.5295 24.1495 18.5041C25.0798 14.8378 25.0798 10.9972 24.1495 7.3309C23.8891 6.3053 23.3494 5.37198 22.5905 4.63466C21.8315 3.89733 20.883 3.38488 19.8503 3.15423L19.4548 3.06556ZM9.292 7.23523C9.07517 7.20367 8.85407 7.24731 8.6655 7.3589H8.64916C8.21166 7.61556 7.81733 7.93873 7.48133 8.31906C7.20133 8.64223 7.04966 8.9689 7.01 9.2839C6.98666 9.47056 7.003 9.65956 7.05783 9.83806L7.07883 9.84973C7.39383 10.7749 7.8045 11.6651 8.30616 12.5027C8.95302 13.6793 9.74904 14.7675 10.6745 15.7402L10.7025 15.7799L10.7468 15.8126L10.7737 15.8441L10.8063 15.8721C11.7825 16.8003 12.8732 17.6001 14.052 18.2521C15.3995 18.9859 16.2173 19.3324 16.7085 19.4771V19.4841C16.852 19.5284 16.9827 19.5482 17.1145 19.5482C17.5328 19.5173 17.9287 19.3473 18.2392 19.0652C18.6183 18.7292 18.9392 18.3337 19.1888 17.8939V17.8857C19.4233 17.4424 19.344 17.0247 19.0057 16.7412C18.3261 16.1474 17.5912 15.62 16.8112 15.1662C16.2885 14.8827 15.7577 15.0542 15.543 15.3412L15.0845 15.9199C14.8488 16.2069 14.4218 16.1672 14.4218 16.1672L14.4102 16.1742C11.224 15.3611 10.3735 12.1352 10.3735 12.1352C10.3735 12.1352 10.3338 11.6966 10.629 11.4726L11.203 11.0106C11.4783 10.7866 11.6697 10.2569 11.3745 9.73423C10.9237 8.95345 10.3973 8.21882 9.803 7.5409C9.67337 7.38135 9.49157 7.27269 9.28966 7.23406L9.292 7.23523ZM14.675 5.8329C14.5203 5.8329 14.3719 5.89436 14.2625 6.00375C14.1531 6.11315 14.0917 6.26152 14.0917 6.41623C14.0917 6.57094 14.1531 6.71931 14.2625 6.82871C14.3719 6.93811 14.5203 6.99956 14.675 6.99956C16.1508 6.99956 17.3758 7.4814 18.3453 8.4054C18.8435 8.91056 19.232 9.50906 19.4863 10.1647C19.7418 10.8216 19.8585 11.5227 19.8282 12.2251C19.8249 12.3017 19.8368 12.3782 19.8632 12.4502C19.8895 12.5222 19.9298 12.5883 19.9817 12.6447C20.0865 12.7587 20.2323 12.8264 20.387 12.8329C20.5417 12.8394 20.6927 12.7842 20.8067 12.6794C20.9206 12.5746 20.9883 12.4288 20.9948 12.2741C21.031 11.4101 20.8876 10.5481 20.5737 9.7424C20.2584 8.93289 19.7803 8.1967 19.169 7.5794L19.1573 7.56773C17.9545 6.41856 16.432 5.8329 14.675 5.8329ZM14.6353 7.7509C14.4806 7.7509 14.3322 7.81236 14.2229 7.92175C14.1135 8.03115 14.052 8.17952 14.052 8.33423C14.052 8.48894 14.1135 8.63731 14.2229 8.74671C14.3322 8.85611 14.4806 8.91756 14.6353 8.91756H14.6552C15.7192 8.9934 16.4938 9.34806 17.0363 9.93023C17.5928 10.5299 17.881 11.2754 17.8588 12.1971C17.8553 12.3518 17.9133 12.5016 18.0202 12.6135C18.1271 12.7254 18.274 12.7903 18.4287 12.7938C18.5835 12.7974 18.7332 12.7393 18.8452 12.6324C18.9571 12.5256 19.0219 12.3786 19.0255 12.2239C19.0535 11.0141 18.6638 9.9699 17.8915 9.1369V9.13456C17.1017 8.28756 16.0178 7.83956 14.7135 7.75206L14.6937 7.74973L14.6353 7.7509ZM14.6132 9.70506C14.5351 9.69818 14.4564 9.70709 14.3819 9.73127C14.3074 9.75545 14.2384 9.79441 14.1793 9.84581C14.1201 9.89721 14.0719 9.96001 14.0376 10.0304C14.0032 10.1009 13.9834 10.1775 13.9793 10.2558C13.9753 10.3341 13.987 10.4123 14.0138 10.486C14.0407 10.5596 14.0821 10.6271 14.1356 10.6843C14.1891 10.7416 14.2536 10.7875 14.3252 10.8193C14.3968 10.8511 14.4741 10.8681 14.5525 10.8694C15.0402 10.8951 15.3517 11.0421 15.5477 11.2392C15.7448 11.4376 15.8918 11.7561 15.9187 12.2542C15.9201 12.3325 15.9373 12.4097 15.9692 12.4812C16.0012 12.5527 16.0471 12.617 16.1045 12.6704C16.1618 12.7237 16.2292 12.765 16.3028 12.7917C16.3764 12.8184 16.4546 12.83 16.5328 12.8259C16.611 12.8217 16.6876 12.8019 16.7579 12.7675C16.8283 12.7332 16.891 12.685 16.9423 12.6259C16.9937 12.5668 17.0326 12.4979 17.0567 12.4234C17.0809 12.349 17.0898 12.2704 17.083 12.1924C17.0457 11.4924 16.8263 10.8741 16.3772 10.4191C15.9257 9.96406 15.3108 9.7424 14.6132 9.70506Z" />
	</symbol>
	<!-- telegram -->
	<symbol id="telegram" viewBox="0 0 28 28">
		<path d="M14.0007 2.33301C7.56065 2.33301 2.33398 7.55967 2.33398 13.9997C2.33398 20.4397 7.56065 25.6663 14.0007 25.6663C20.4407 25.6663 25.6673 20.4397 25.6673 13.9997C25.6673 7.55967 20.4407 2.33301 14.0007 2.33301ZM19.414 10.2663C19.239 12.1097 18.4807 16.5897 18.0957 18.6547C17.9323 19.5297 17.6057 19.8213 17.3023 19.8563C16.6257 19.9147 16.1123 19.413 15.459 18.9813C14.4323 18.3047 13.849 17.8847 12.8573 17.2313C11.7023 16.473 12.449 16.053 13.114 15.3763C13.289 15.2013 16.2757 12.483 16.334 12.238C16.3421 12.2009 16.341 12.1624 16.3308 12.1258C16.3207 12.0892 16.3017 12.0556 16.2757 12.028C16.2057 11.9697 16.1123 11.993 16.0307 12.0047C15.9257 12.028 14.2923 13.113 11.1073 15.2597C10.6407 15.5747 10.2207 15.738 9.84732 15.7263C9.42732 15.7147 8.63398 15.493 8.03898 15.2947C7.30398 15.0613 6.73232 14.933 6.77898 14.5247C6.80232 14.3147 7.09399 14.1047 7.64232 13.883C11.049 12.4013 13.3123 11.4213 14.444 10.9547C17.6873 9.60134 18.3523 9.36801 18.7957 9.36801C18.889 9.36801 19.1107 9.39134 19.2507 9.50801C19.3673 9.60134 19.4023 9.72968 19.414 9.82301C19.4023 9.89301 19.4257 10.103 19.414 10.2663Z" />
	</symbol>
</svg>