<?xml version="1.0" encoding="utf-8"?>
<!-- Generator: Adobe Illustrator 18.0.0, SVG Export Plug-In . SVG Version: 6.00 Build 0)  -->
<!DOCTYPE svg PUBLIC "-//W3C//DTD SVG 1.1//EN" "http://www.w3.org/Graphics/SVG/1.1/DTD/svg11.dtd">
<svg version="1.1" xmlns="http://www.w3.org/2000/svg" xmlns:xlink="http://www.w3.org/1999/xlink" x="0px" y="0px"
	 viewBox="0 0 595.3 595.3" enable-background="new 0 0 595.3 595.3" xml:space="preserve">
<g id="Capa_1">
</g>
<g id="Capa_2">
	<path opacity="0.6" fill="#53B583" d="M294.6,564.1c-38.1,0-76.2,0.6-114.3-0.1C97.1,562.3,30,495.8,28.8,412.5
		c-1.1-77.1-1-154.3,0-231.4C29.8,96.6,96.7,29.5,182,28c76.2-1.3,152.4-1.4,228.5-0.1c87.1,1.5,153.2,67.9,154.5,154.8
		c1.1,75.2,1.1,150.5,0.1,225.7c-1.2,89.9-68.5,155.1-159,155.6C368.9,564.2,331.7,564.1,294.6,564.1z"/>
	<path opacity="0.6" fill="#53B583" d="M447.8,187.3c-18.8,0-36.8-7.5-50.1-20.8c-13.3-13.3-20.7-31.4-20.7-50.2
		c0-1.3,0.1-2.8,0.2-4.5c0-0.3,0-0.6,0-0.8c0.1-2,0.2-4.3,0.2-6.5c-0.1-4.2-0.8-9.8-4.6-13.6c-3.7-3.7-9.4-4.8-13.8-5.1
		c-3.5-0.3-7.3-0.3-10.2-0.2c-0.9,0-1.7,0-2.4,0c-0.7,0-1.5,0-2.4,0c-2.9,0-6.5-0.1-9.8,0.2c-4.3,0.4-9.6,1.5-13.3,5.1
		c-3.8,3.8-4.5,9.4-4.6,13.6c-0.1,2.3,0.1,4.5,0.2,6.5c0,0.3,0,0.6,0,0.8c0.1,1.7,0.2,3.2,0.2,4.5v252.9c0,14-4.2,27.8-11.9,39.4
		c-7.8,11.7-18.8,20.8-31.8,26.1c-12.9,5.4-27.2,6.8-40.9,4c-13.7-2.7-26.3-9.5-36.3-19.4c-9.9-9.9-16.6-22.6-19.4-36.3
		c-2.7-13.8-1.3-28,4-41c5.4-13,14.4-24.1,26.1-31.9c11.6-7.8,25.3-12,39.3-12c1.1,0,2.4,0,3.8,0.1c0.5,0,1.1,0,1.7,0.1
		c2.1,0.1,4.4,0.1,6.8,0c4.3-0.2,10-1,13.8-4.8c3.8-3.8,4.6-9.4,4.7-13.6c0.1-2.3,0-4.6,0-6.6c0-0.5,0-1-0.1-1.4
		c-0.1-1.5-0.1-2.8-0.1-4c0-0.3,0-0.7,0-1c0-3.1,0-7.2-0.5-11c-0.6-4.2-1.9-9.2-5.4-12.7c-3.6-3.6-8.7-4.7-12.9-5.1
		c-3.1-0.3-6.5-0.2-9.2-0.2c-0.9,0-1.8,0-2.6,0c-25.9,0-51.2,7.7-72.8,22.1c-21.5,14.4-38.3,34.9-48.3,58.9
		c-9.9,24-12.5,50.4-7.5,75.9c5.1,25.5,17.5,48.9,35.9,67.2c18.3,18.4,41.7,30.9,67.1,35.9c25.4,5.1,51.8,2.5,75.7-7.5
		c23.9-9.9,44.4-26.8,58.8-48.4c14.4-21.6,22.1-47,22.1-72.9V226.9c21,13.6,45.6,20.9,70.8,20.8c1.3,0,2.8,0.1,4.6,0.2
		c0.2,0,0.4,0,0.6,0c2,0.1,4.2,0.2,6.4,0.2c4.1-0.1,9.7-0.7,13.5-4.5c3.6-3.6,4.8-9,5.4-13.4c0.5-4.1,0.5-8.4,0.5-11.6
		c0-0.4,0-0.7,0-1c0-0.3,0-0.7,0-1c0-3.1,0-7.2-0.5-11c-0.6-4.2-1.9-9.2-5.4-12.8l-3.5,3.4l3.5-3.4c-3.6-3.6-8.9-4.7-13.1-5.1
		c-3.3-0.3-6.8-0.3-9.7-0.2C449.3,187.3,448.5,187.3,447.8,187.3z"/>
	<path fill="#FFFFFF" stroke="#FFFFFF" stroke-width="8.733" d="M432,201.1c-16.8,0-32.9-6.7-44.8-18.6
		c-11.9-11.9-18.6-28.1-18.6-44.9c0-1.2,0.1-2.5,0.2-4c0-0.2,0-0.5,0-0.7c0.1-1.8,0.2-3.8,0.2-5.9c-0.1-3.8-0.7-8.8-4.1-12.2
		c-3.3-3.3-8.4-4.3-12.3-4.6c-3.2-0.3-6.5-0.2-9.2-0.2c-0.8,0-1.5,0-2.1,0c-0.6,0-1.3,0-2.1,0c-2.6,0-5.8-0.1-8.8,0.2
		c-3.8,0.4-8.6,1.3-11.9,4.6c-3.4,3.4-4,8.4-4.1,12.2c0,2,0.1,4.1,0.2,5.9c0,0.3,0,0.5,0,0.7c0.1,1.6,0.2,2.9,0.2,4v226.4
		c0,12.6-3.7,24.9-10.7,35.3c-7,10.4-16.9,18.6-28.4,23.4c-11.6,4.8-24.3,6.1-36.6,3.6c-12.3-2.5-23.6-8.5-32.5-17.4
		c-8.9-8.9-14.9-20.2-17.4-32.5c-2.4-12.3-1.2-25.1,3.6-36.7c4.8-11.6,12.9-21.5,23.3-28.5c10.4-7,22.7-10.7,35.2-10.7
		c1,0,2.1,0,3.4,0.1c0.5,0,1,0,1.5,0.1c1.9,0.1,4,0.1,6,0c3.9-0.2,9-0.9,12.3-4.3c3.4-3.4,4.1-8.4,4.2-12.2c0.1-2,0-4.1,0-5.9
		c0-0.4,0-0.9-0.1-1.3c-0.1-1.4-0.1-2.5-0.1-3.6c0-0.3,0-0.6,0-0.9c0-2.8,0-6.4-0.4-9.9c-0.5-3.8-1.7-8.2-4.8-11.4
		c-3.2-3.3-7.8-4.2-11.5-4.6c-2.8-0.3-5.8-0.2-8.3-0.2c-0.8,0-1.6,0-2.3,0c-23.2,0-45.9,6.9-65.2,19.8
		c-19.3,12.9-34.3,31.3-43.2,52.8c-8.9,21.5-11.2,45.1-6.7,67.9c4.5,22.8,15.7,43.7,32.1,60.2c16.4,16.4,37.3,27.6,60.1,32.2
		c22.8,4.5,46.3,2.2,67.8-6.7c21.4-8.9,39.8-24,52.6-43.3c12.9-19.3,19.8-42.1,19.8-65.3V236.5c18.8,12.2,40.8,18.7,63.4,18.6
		c1.2,0,2.5,0.1,4.1,0.2c0.2,0,0.4,0,0.5,0c1.8,0.1,3.8,0.2,5.7,0.2c3.7-0.1,8.6-0.6,12.1-4.1c3.2-3.2,4.3-8.1,4.8-12
		c0.5-3.7,0.4-7.6,0.4-10.4c0-0.3,0-0.6,0-0.9c0-0.3,0-0.6,0-0.9c0-2.8,0-6.4-0.4-9.9c-0.5-3.8-1.7-8.3-4.8-11.4l-3.1,3.1l3.1-3.1
		c-3.3-3.3-7.9-4.2-11.7-4.6c-2.9-0.3-6.1-0.2-8.7-0.2C433.4,201.1,432.6,201.1,432,201.1z"/>
</g>
</svg>
