<?xml version="1.0" standalone="no"?>
<!DOCTYPE svg PUBLIC "-//W3C//DTD SVG 20010904//EN"
 "http://www.w3.org/TR/2001/REC-SVG-20010904/DTD/svg10.dtd">
<svg version="1.0" xmlns="http://www.w3.org/2000/svg"
 width="1563.000000pt" height="1563.000000pt" viewBox="0 0 1563.000000 1563.000000"
 preserveAspectRatio="xMidYMid meet">

<g transform="translate(0.000000,1563.000000) scale(0.100000,-0.100000)"
fill="#000000" stroke="none">
<path d="M7460 14134 c-402 -22 -572 -37 -860 -74 -1075 -140 -2216 -520
-3175 -1057 -321 -180 -445 -257 -445 -277 0 -12 5 -61 10 -111 47 -457 56
-1347 20 -1960 -35 -595 -90 -1128 -181 -1740 -98 -661 -136 -976 -176 -1435
-22 -260 -25 -1055 -5 -1250 71 -686 234 -1143 532 -1495 396 -468 1258 -1054
2660 -1810 900 -485 1549 -885 1905 -1175 l70 -58 80 65 c354 284 973 667
1850 1143 1133 615 1773 1014 2270 1419 161 130 396 359 480 466 376 482 542
1218 505 2247 -20 573 -68 1031 -190 1838 -78 517 -122 893 -159 1375 -39 504
-46 683 -46 1285 0 581 7 775 39 1093 l12 119 -166 98 c-819 485 -1624 818
-2505 1039 -482 120 -1006 202 -1555 242 -145 10 -847 20 -970 13z m835 -334
c966 -53 1860 -252 2775 -618 296 -118 780 -353 1088 -529 l154 -87 -6 -71
c-32 -346 -44 -1081 -27 -1535 27 -710 94 -1396 212 -2175 133 -882 182 -1420
182 -2000 0 -802 -116 -1317 -390 -1732 -123 -187 -416 -450 -813 -733 -447
-318 -951 -625 -1665 -1012 -230 -126 -437 -239 -665 -366 -406 -225 -880
-517 -1192 -734 -69 -48 -129 -88 -133 -88 -4 0 -44 26 -88 59 -126 90 -503
336 -691 450 -195 119 -630 368 -720 413 -33 16 -104 54 -156 83 -52 29 -160
87 -240 130 -534 287 -1260 715 -1525 900 -249 173 -316 222 -440 317 -287
219 -506 433 -621 604 -67 101 -172 318 -214 444 -181 542 -211 1319 -94 2395
14 127 63 496 109 820 116 812 154 1148 190 1680 45 681 48 1511 6 2053 l-7
94 41 27 c118 80 593 327 887 462 631 289 1377 517 2093 638 320 55 754 101
1060 114 180 8 728 6 890 -3z"/>
<path d="M7200 12996 l-355 -31 -3 -114 c-1 -63 1 -118 5 -122 4 -4 57 -1 117
7 60 7 111 12 113 11 8 -9 45 -402 52 -560 5 -98 11 -180 13 -182 6 -7 282 16
290 24 4 3 -2 74 -12 156 -22 172 -52 574 -44 586 3 5 52 9 110 9 l104 0 0
113 c0 104 -8 141 -29 136 -4 -1 -166 -16 -361 -33z"/>
<path d="M8172 13020 c-214 -45 -344 -220 -359 -484 -16 -282 94 -458 319
-511 229 -54 455 33 551 212 70 131 92 365 48 505 -40 126 -127 217 -246 259
-68 23 -242 34 -313 19z m170 -240 c77 -22 101 -111 87 -318 -13 -184 -41
-227 -149 -227 -67 1 -104 21 -130 71 -32 63 -22 353 15 425 28 53 95 72 177
49z"/>
<path d="M9101 12886 c-5 -28 -35 -185 -66 -350 -31 -164 -72 -357 -91 -428
-19 -72 -33 -132 -31 -135 8 -8 273 -72 363 -87 49 -9 130 -16 180 -16 153 0
238 38 289 131 26 46 30 65 30 130 0 87 -18 124 -88 173 l-40 29 49 22 c121
54 179 206 123 322 -46 94 -137 139 -395 194 -104 22 -217 46 -251 53 l-62 13
-10 -51z m327 -222 c94 -28 122 -75 87 -149 -17 -33 -46 -55 -80 -57 -24 -2
-125 22 -125 29 0 6 39 164 45 181 5 15 6 15 73 -4z m-68 -389 c112 -24 153
-98 91 -167 -26 -30 -35 -33 -83 -32 -29 0 -73 6 -97 13 l-43 12 7 47 c15 106
26 142 43 142 9 -1 46 -7 82 -15z"/>
<path d="M6187 12840 c-158 -37 -290 -70 -293 -73 -3 -3 4 -91 15 -196 12
-105 21 -250 21 -324 0 -123 -2 -137 -26 -185 -15 -31 -39 -60 -60 -72 -19
-12 -34 -23 -34 -24 0 -15 100 -221 109 -224 6 -2 43 6 82 18 169 51 214 187
190 575 -7 104 -15 208 -18 230 l-5 41 51 10 c29 6 54 8 56 4 11 -18 120 -473
140 -589 14 -74 26 -136 29 -138 4 -4 284 55 293 61 1 1 -16 69 -39 151 -23
83 -71 296 -108 475 -65 317 -67 325 -91 327 -13 0 -154 -29 -312 -67z"/>
<path d="M10236 12661 c-2 -3 -54 -150 -116 -326 -62 -176 -139 -380 -172
-454 -32 -74 -57 -135 -56 -136 10 -6 281 -105 283 -103 1 2 27 77 58 168 30
91 64 185 75 210 l20 45 7 -50 c28 -202 75 -468 84 -478 12 -15 69 -31 208
-56 125 -22 133 -18 109 56 -29 87 -126 485 -121 493 3 5 100 82 215 171 116
89 209 164 206 166 -2 2 -68 29 -147 58 l-144 55 -35 -34 c-46 -45 -321 -258
-326 -253 -2 2 28 82 66 177 39 96 70 179 70 185 0 11 -278 116 -284 106z"/>
<path d="M4996 12475 c-87 -35 -160 -66 -162 -68 -4 -4 73 -939 82 -994 l5
-31 127 50 c70 28 131 55 136 59 5 4 1 41 -9 84 -9 42 -15 78 -13 80 22 21
251 107 257 96 3 -5 22 -37 41 -70 19 -33 39 -61 44 -61 26 0 276 105 274 115
-6 21 -602 805 -612 805 -6 -1 -82 -30 -170 -65z m197 -385 c48 -71 87 -134
87 -138 0 -12 -139 -66 -147 -58 -7 6 -42 260 -43 304 0 12 4 22 8 22 5 0 48
-58 95 -130z"/>
<path d="M4295 12154 c-163 -43 -346 -178 -405 -298 -91 -187 -34 -425 147
-617 147 -155 315 -179 528 -74 64 31 195 121 209 143 7 12 -88 225 -103 230
-6 2 -36 -19 -66 -46 -98 -90 -196 -122 -264 -87 -75 38 -188 210 -199 301 -6
54 19 105 68 139 40 28 146 65 185 65 13 0 25 6 27 12 5 13 -59 229 -70 239
-4 3 -29 0 -57 -7z"/>
<path d="M11163 11759 c-200 -193 -363 -353 -363 -357 1 -13 252 -145 258
-136 4 6 27 36 51 67 l43 57 97 -50 c53 -28 107 -59 121 -70 l25 -19 -27 -77
c-15 -43 -27 -79 -25 -80 21 -16 260 -145 263 -141 4 4 244 970 244 982 0 5
-308 175 -317 175 -4 0 -171 -158 -370 -351z m352 -131 c-27 -84 -49 -154 -50
-156 -3 -3 -127 66 -139 78 -5 5 40 60 105 129 63 66 118 116 123 111 4 -4
-13 -76 -39 -162z"/>
<path d="M5760 11125 c-219 -54 -409 -242 -452 -449 -10 -46 -22 -65 -75 -123
-45 -48 -60 -59 -50 -38 27 57 40 140 35 236 -5 104 -26 174 -76 254 l-31 50
-46 -50 c-57 -62 -122 -190 -136 -270 -23 -123 5 -272 72 -379 l30 -49 -37
-51 c-20 -28 -59 -86 -87 -128 -28 -43 -52 -76 -53 -75 -1 1 2 27 8 57 27 147
-36 355 -137 450 l-26 25 -19 -25 c-149 -195 -144 -474 11 -669 l41 -51 -63
-140 -64 -139 -6 87 c-7 93 -31 175 -75 249 -25 44 -138 163 -154 163 -9 0
-54 -101 -69 -155 -6 -22 -11 -80 -11 -128 0 -153 60 -290 172 -393 l55 -50
-43 -150 c-24 -82 -43 -144 -44 -139 0 6 -7 40 -14 76 -19 90 -64 175 -131
247 -62 67 -151 130 -165 116 -19 -21 -40 -123 -40 -200 0 -184 94 -354 253
-456 l49 -32 -5 -45 c-4 -25 -12 -96 -18 -157 l-12 -112 -21 62 c-30 88 -71
152 -140 221 -58 57 -171 125 -209 125 -23 0 -33 -116 -18 -209 28 -182 177
-367 339 -420 l42 -14 0 -97 c0 -53 2 -126 5 -161 l6 -64 -36 68 c-51 97 -138
180 -238 228 -45 21 -101 41 -124 45 l-43 7 0 -64 c0 -134 51 -250 155 -354
75 -75 149 -118 250 -145 l59 -17 28 -139 c34 -176 34 -177 -3 -121 -80 122
-219 198 -403 222 l-49 7 6 -49 c27 -228 242 -433 472 -450 l73 -6 45 -126
c24 -69 48 -135 53 -146 5 -13 -9 -5 -39 23 -114 104 -246 155 -387 150 -84
-3 -85 -3 -82 -28 6 -53 74 -171 130 -229 108 -109 239 -164 394 -164 93 -1
97 -2 108 -26 6 -14 38 -72 71 -128 32 -57 59 -105 59 -108 0 -3 -19 10 -43
28 -90 69 -245 114 -352 102 -66 -7 -145 -25 -145 -32 0 -25 75 -134 124 -181
133 -128 316 -179 491 -137 46 11 62 11 71 2 9 -10 101 -127 167 -213 17 -22
13 -21 -55 11 -100 46 -186 60 -286 47 -93 -13 -192 -49 -192 -70 0 -8 33 -47
73 -86 85 -85 165 -129 281 -152 96 -20 210 -9 304 29 l60 25 43 -44 c40 -40
47 -44 93 -44 l50 0 -66 68 -67 67 34 54 c57 90 80 171 80 286 0 71 -6 116
-19 155 -28 83 -73 163 -115 204 l-39 38 -25 -34 c-104 -136 -125 -340 -53
-521 l25 -62 -45 50 c-57 64 -184 229 -184 240 0 4 15 26 33 49 84 102 125
200 134 317 9 122 -23 245 -89 343 l-25 36 -33 -33 c-54 -52 -105 -139 -129
-222 -20 -66 -23 -93 -19 -174 3 -53 12 -115 21 -138 8 -24 13 -43 11 -43 -5
0 -139 229 -164 281 l-22 46 75 75 c169 169 212 391 117 605 -18 41 -21 43
-42 32 -42 -22 -133 -124 -165 -185 -45 -85 -65 -180 -61 -286 3 -86 3 -87
-13 -55 -19 36 -119 301 -119 314 0 4 22 20 48 35 108 61 194 163 241 288 19
52 24 85 25 165 1 55 -5 124 -13 153 l-13 52 -52 -27 c-28 -15 -82 -58 -119
-95 -99 -97 -156 -231 -158 -371 -1 -48 -1 -50 -10 -22 -14 44 -69 307 -69
331 0 16 19 30 88 64 160 79 262 209 298 380 14 68 14 193 -1 208 -9 10 -101
-31 -168 -76 -38 -24 -87 -68 -109 -96 -53 -66 -106 -177 -114 -239 -12 -89
-24 -33 -30 145 l-7 176 34 6 c254 50 448 267 449 504 0 48 -2 52 -24 52 -45
0 -153 -40 -212 -79 -98 -64 -170 -151 -214 -259 l-19 -47 0 35 c-1 36 25 267
34 306 4 18 14 22 79 27 81 7 179 40 247 82 98 63 188 185 223 304 26 88 24
91 -37 91 -166 0 -350 -109 -439 -261 -21 -35 -38 -59 -38 -54 0 15 67 264 83
310 l14 40 99 1 c54 1 122 7 149 14 142 36 284 150 348 279 42 84 44 97 18
106 -35 11 -166 8 -221 -5 -114 -26 -261 -127 -323 -220 -24 -36 26 85 89 219
45 95 57 112 71 106 10 -4 51 -14 92 -22 137 -28 271 5 405 101 82 58 184 191
163 212 -14 14 -126 34 -192 34 -130 0 -264 -52 -358 -138 l-51 -47 24 40 c13
22 59 93 103 158 59 87 84 117 96 113 9 -3 48 -16 86 -30 84 -30 217 -35 310
-11 108 29 217 99 285 185 l31 39 -52 26 c-107 55 -252 67 -370 31 -54 -17
-147 -62 -171 -84 -38 -33 -15 2 51 77 66 74 72 79 121 85 255 34 476 262 507
523 l6 53 -44 -1 c-24 0 -69 -7 -99 -14z"/>
<path d="M9734 11083 c23 -194 151 -372 334 -463 62 -31 159 -60 198 -60 15 0
43 -23 86 -70 77 -87 93 -112 52 -83 -153 108 -354 129 -521 53 l-65 -30 33
-41 c130 -164 373 -240 575 -178 38 11 79 27 91 35 21 13 24 12 54 -28 38 -53
127 -189 159 -243 l23 -40 -44 42 c-101 95 -251 149 -394 140 -86 -5 -165 -24
-165 -40 0 -13 37 -73 74 -121 38 -47 134 -117 208 -151 84 -39 197 -51 289
-32 41 8 82 18 92 22 14 6 25 -10 66 -96 66 -140 115 -260 93 -229 -66 96
-177 176 -292 210 -100 30 -256 32 -267 4 -3 -8 11 -49 32 -91 96 -194 321
-319 532 -298 62 7 63 6 74 -22 18 -46 76 -255 83 -298 l7 -40 -33 55 c-92
157 -278 270 -445 270 -50 0 -53 -2 -53 -25 0 -33 40 -142 74 -199 84 -143
280 -255 448 -256 45 0 43 4 63 -165 16 -142 19 -229 6 -185 -54 178 -241 343
-416 367 l-45 6 0 -54 c0 -149 85 -306 219 -406 53 -40 155 -84 230 -99 l34
-6 -7 -171 c-7 -181 -18 -236 -30 -149 -9 70 -77 202 -135 261 -75 77 -237
169 -259 147 -4 -4 -7 -51 -7 -104 0 -74 6 -113 23 -164 55 -161 180 -287 345
-347 15 -6 27 -18 27 -28 0 -24 -59 -309 -70 -336 -7 -17 -9 -12 -10 28 -1 72
-25 166 -61 237 -38 75 -142 181 -216 221 l-51 27 -16 -69 c-39 -173 6 -353
121 -481 41 -45 140 -121 174 -132 10 -3 -28 -121 -86 -265 -20 -51 -38 -93
-39 -93 0 0 1 40 2 89 5 110 -10 182 -53 269 -37 74 -115 167 -163 195 l-31
18 -21 -40 c-48 -95 -62 -234 -35 -350 23 -98 70 -177 154 -260 l74 -75 -32
-62 c-41 -79 -150 -264 -156 -264 -2 0 3 19 11 43 25 66 30 210 10 286 -26
103 -93 220 -151 263 -21 16 -23 15 -55 -39 -121 -198 -102 -446 47 -628 24
-31 43 -62 40 -69 -5 -13 -142 -186 -196 -246 l-31 -35 20 46 c50 118 63 244
35 354 -17 68 -69 176 -95 200 -16 15 -21 12 -61 -33 -105 -117 -150 -288
-119 -453 11 -59 58 -165 90 -206 l21 -27 -68 -68 -67 -68 51 0 c46 0 55 4 93
41 l42 41 81 -27 c153 -50 290 -42 429 27 66 33 208 163 208 190 0 22 -101 57
-196 70 -101 13 -203 -5 -295 -52 -59 -30 -61 -30 -43 -7 62 80 159 204 168
214 9 9 25 9 71 -2 180 -43 359 9 496 145 53 52 119 149 119 173 0 7 -82 25
-145 32 -107 12 -262 -33 -352 -102 -24 -18 -43 -31 -43 -29 0 1 32 59 70 127
39 68 70 126 70 129 0 4 42 6 93 6 156 0 285 53 393 160 62 61 131 180 136
234 3 25 2 25 -76 28 -43 2 -102 -2 -131 -8 -80 -17 -183 -71 -249 -131 -35
-31 -56 -46 -52 -34 29 72 84 224 89 246 6 24 11 26 80 32 233 17 447 221 474
451 l6 48 -64 -7 c-157 -17 -322 -111 -390 -222 -12 -19 -23 -32 -25 -31 -2 2
9 69 24 147 l28 144 54 14 c231 58 410 277 410 501 l0 65 -42 -7 c-58 -9 -179
-67 -234 -113 -48 -39 -123 -136 -149 -194 l-16 -34 5 64 c4 35 6 108 6 161
l0 97 48 18 c165 62 293 219 329 405 18 88 11 208 -12 217 -27 10 -149 -60
-211 -122 -69 -69 -110 -133 -140 -223 l-22 -63 -7 76 c-4 42 -12 114 -19 160
l-12 83 52 32 c150 91 254 275 254 449 0 67 -26 197 -41 206 -15 10 -112 -59
-167 -120 -74 -81 -119 -178 -138 -295 -6 -44 -7 -43 -44 92 -20 75 -40 143
-43 152 -4 10 17 38 62 83 74 74 121 155 146 250 17 66 19 188 4 253 -13 56
-59 160 -71 160 -4 0 -36 -28 -71 -63 -103 -103 -156 -229 -158 -372 l0 -70
-17 35 c-9 19 -39 83 -67 142 l-50 107 42 52 c159 199 162 477 8 673 -15 19
-15 19 -40 -4 -101 -95 -169 -322 -137 -460 6 -24 10 -46 8 -47 -2 -2 -18 20
-37 49 -19 29 -58 87 -86 128 l-52 75 44 90 c79 158 84 310 15 461 -29 65 -84
142 -125 175 -23 20 -28 15 -71 -72 -61 -120 -72 -279 -30 -404 l24 -70 -62
67 c-52 55 -65 76 -75 121 -37 168 -170 332 -329 408 -71 33 -168 59 -226 59
l-39 0 7 -57z"/>
<path d="M7140 10599 c72 -39 167 -106 190 -134 8 -10 2 -18 -27 -36 -103 -64
-377 -320 -507 -474 l-67 -80 -107 -2 c-140 -2 -268 -35 -418 -107 -125 -60
-284 -165 -383 -251 -40 -35 -67 -53 -75 -47 -6 4 -33 25 -59 46 l-48 38 -37
-43 c-127 -149 -238 -368 -291 -576 -60 -234 -88 -544 -76 -841 l7 -185 187
193 186 193 301 -286 301 -286 6 -93 c9 -151 80 -447 174 -733 l36 -110 -158
-152 c-140 -136 -162 -153 -192 -153 -60 0 -123 43 -239 161 -303 312 -497
690 -579 1134 l-22 120 -8 -59 c-11 -81 0 -274 20 -371 38 -185 108 -355 207
-501 30 -43 95 -140 145 -214 116 -172 229 -307 345 -412 50 -46 146 -135 213
-198 243 -230 482 -368 826 -478 234 -75 456 -109 780 -121 383 -14 611 11
872 96 263 84 527 223 712 372 28 22 106 78 175 124 213 143 341 271 482 482
83 125 191 335 252 492 20 51 36 96 36 99 0 4 -24 -40 -53 -97 -143 -282 -372
-549 -677 -791 -120 -95 -208 -153 -217 -144 -3 3 13 47 37 97 93 201 163 467
197 744 l16 140 127 130 c171 175 351 374 412 457 28 37 54 68 59 68 14 0 169
-160 185 -192 20 -38 34 -23 34 38 0 70 -68 141 -191 199 l-36 17 -68 297
c-37 163 -87 365 -110 450 l-42 153 18 72 c33 125 44 277 31 420 -7 70 -19
159 -27 199 -16 80 -48 186 -39 129 15 -90 2 -505 -22 -653 l-5 -36 -77 -7
c-131 -11 -493 -56 -567 -71 l-70 -14 -25 32 c-242 310 -535 580 -801 737
l-89 53 0 317 0 317 93 17 c195 36 317 48 502 50 105 0 223 -2 264 -7 41 -4
72 -5 69 -2 -8 8 -232 53 -333 66 -176 23 -412 13 -625 -27 -85 -16 -86 -16
-265 16 -99 17 -242 40 -318 50 -131 18 -140 20 -176 53 -20 18 -72 48 -113
65 -69 29 -291 92 -321 92 -7 0 22 -19 63 -41z m-310 -878 c63 -71 182 -201
263 -290 l149 -161 -41 -95 c-100 -234 -180 -627 -192 -951 l-2 -52 -310 -176
-309 -177 -106 68 c-228 144 -644 425 -648 438 -3 7 11 91 31 187 120 571 175
844 175 864 0 59 313 281 529 374 102 44 280 99 321 99 19 -1 52 -30 140 -128z
m1620 -240 c183 -140 352 -282 464 -391 114 -110 266 -288 266 -311 0 -14
-154 -699 -209 -927 l-20 -83 305 -302 304 -302 -69 -205 c-78 -231 -159 -432
-229 -565 l-47 -90 -113 -56 c-160 -79 -438 -170 -699 -228 l-87 -20 -70 36
c-142 70 -343 213 -591 419 -90 75 -126 111 -122 122 2 10 79 197 169 417 91
220 168 410 172 421 4 12 14 24 24 26 131 36 931 272 928 275 -2 2 -70 -7
-152 -21 -194 -32 -467 -63 -674 -76 -91 -5 -197 -12 -236 -15 l-71 -5 -214
182 c-118 99 -229 194 -248 210 -30 26 -37 42 -52 117 -61 288 -36 714 63
1082 l21 77 116 36 c379 119 514 163 671 218 96 33 186 66 200 74 30 15 28 17
200 -115z m-1914 -2790 c181 -89 547 -151 894 -151 l86 0 139 -150 c77 -83
178 -186 226 -230 99 -90 228 -190 246 -190 7 0 13 -3 13 -7 0 -7 -118 -183
-149 -223 l-20 -25 -258 0 c-273 1 -344 8 -549 60 -213 54 -463 175 -643 312
-82 63 -215 190 -248 238 l-21 30 77 141 c64 117 133 224 146 224 2 0 29 -13
61 -29z"/>
<path d="M8848 7723 c7 -3 16 -2 19 1 4 3 -2 6 -13 5 -11 0 -14 -3 -6 -6z"/>
<path d="M4694 4820 l1 -270 80 0 80 0 -3 90 -3 90 80 0 81 0 0 65 0 65 -81 0
-80 0 3 48 3 47 96 3 97 3 5 57 c2 31 3 60 0 65 -2 4 -84 7 -182 7 l-178 0 1
-270z"/>
<path d="M5288 5080 c-75 -22 -135 -86 -157 -166 -14 -52 -14 -177 1 -226 6
-22 29 -59 50 -83 80 -91 247 -100 352 -20 80 61 117 217 81 340 -21 72 -80
137 -140 154 -46 13 -147 13 -187 1z m140 -145 c38 -48 37 -225 -2 -263 -23
-23 -82 -20 -108 6 -18 18 -23 36 -26 111 -7 138 9 171 78 171 29 0 43 -6 58
-25z"/>
<path d="M5886 5080 c-52 -16 -103 -60 -132 -113 -27 -48 -29 -59 -29 -162 0
-95 3 -116 22 -152 56 -104 179 -147 307 -109 65 20 112 58 143 119 25 47 27
63 28 157 0 94 -3 111 -26 155 -18 35 -39 59 -74 80 -42 26 -59 30 -129 32
-45 1 -94 -2 -110 -7z m130 -128 c37 -24 57 -175 32 -247 -26 -76 -120 -70
-146 10 -20 58 -12 198 13 225 18 20 78 28 101 12z"/>
<path d="M6853 4815 l2 -275 109 0 c134 0 226 15 269 44 90 60 86 191 -6 231
l-28 12 25 16 c39 26 59 73 53 124 -10 94 -78 123 -289 123 l-137 0 2 -275z
m238 155 c28 -15 26 -74 -3 -94 -23 -17 -73 -22 -81 -8 -3 4 -2 31 0 60 5 50
7 52 35 52 16 0 38 -5 49 -10z m20 -220 c23 -13 26 -62 3 -84 -10 -10 -33 -16
-65 -16 l-49 0 0 55 0 55 46 0 c25 0 54 -5 65 -10z"/>
<path d="M9197 5076 c-108 -29 -170 -118 -176 -253 -8 -202 97 -305 297 -290
41 3 76 8 79 11 3 3 8 34 10 70 l6 66 -76 -6 c-74 -7 -76 -6 -105 23 -51 50
-54 181 -6 234 19 22 94 26 140 9 15 -6 29 -9 31 -6 4 4 32 113 33 128 0 10
-95 28 -143 27 -23 0 -64 -6 -90 -13z"/>
<path d="M10582 4815 l2 -277 150 4 c125 4 159 8 196 25 65 29 92 63 97 120 5
57 -10 89 -54 119 l-31 21 30 31 c42 42 51 123 18 165 -42 54 -71 61 -248 65
l-162 4 2 -277z m232 155 c21 -8 26 -16 26 -43 0 -43 -15 -57 -62 -57 l-38 0
0 55 c0 52 2 55 24 55 14 0 36 -4 50 -10z m30 -226 c43 -42 3 -97 -65 -92
l-44 3 -3 53 -3 52 50 0 c32 0 55 -6 65 -16z"/>
<path d="M6317 5023 c-3 -31 -4 -60 -1 -65 3 -4 32 -8 64 -8 l58 0 8 -67 c4
-38 4 -130 0 -205 l-6 -138 80 0 80 0 0 205 0 205 59 0 c66 0 71 6 71 88 l0
42 -204 0 -203 0 -6 -57z"/>
<path d="M7547 5072 c-8 -11 -157 -509 -157 -522 0 -7 26 -10 78 -8 l77 3 5
40 5 40 77 3 c84 3 80 6 90 -63 3 -18 12 -20 87 -23 76 -3 83 -1 79 15 -3 10
-36 132 -74 271 l-69 252 -97 0 c-53 0 -99 -3 -101 -8z m117 -213 c24 -108 24
-109 -30 -109 -43 0 -46 1 -40 23 4 12 14 52 23 90 9 37 20 67 24 67 4 0 14
-32 23 -71z"/>
<path d="M8011 4810 l1 -270 158 0 158 0 4 63 c2 34 2 65 0 70 -2 4 -39 7 -83
7 l-79 0 0 200 0 200 -80 0 -80 0 1 -270z"/>
<path d="M8444 4810 l1 -270 157 0 157 0 6 55 c11 83 9 85 -86 85 l-81 0 7
200 7 200 -84 0 -85 0 1 -270z"/>
<path d="M9535 4810 l0 -270 156 0 c178 0 169 -4 169 86 l0 54 -84 0 -84 0 5
200 6 200 -84 0 -84 0 0 -270z"/>
<path d="M9968 4878 c1 -112 5 -213 7 -225 3 -13 19 -38 36 -58 87 -98 326
-80 386 30 19 36 22 61 29 248 l7 207 -87 0 -88 0 8 -184 7 -184 -26 -26 c-33
-33 -71 -33 -103 -1 l-25 25 7 185 7 185 -84 0 -84 0 3 -202z"/>
<path d="M6810 3840 l0 -250 45 0 45 0 0 117 c0 64 3 114 6 110 3 -3 14 -45
25 -94 11 -48 21 -98 24 -110 5 -20 12 -23 55 -23 28 0 50 3 50 8 0 4 -16 64
-34 134 -33 122 -34 130 -21 180 8 29 21 81 29 116 l14 62 -48 0 -48 0 -23
-97 -24 -98 -3 98 -3 97 -44 0 -45 0 0 -250z"/>
<path d="M7130 3840 l0 -250 45 0 44 0 3 113 c3 108 4 112 26 115 22 3 22 2
22 -112 l0 -116 50 0 50 0 0 250 0 250 -50 0 -50 0 0 -90 c0 -89 0 -90 -25
-90 -25 0 -25 1 -25 90 l0 90 -45 0 -45 0 0 -250z"/>
<path d="M7489 4068 c0 -13 -10 -125 -22 -250 l-23 -228 48 0 48 0 0 40 c0 39
1 40 35 40 34 0 35 -1 35 -40 l0 -40 48 0 48 0 -23 228 c-12 125 -22 237 -22
250 -1 21 -5 22 -86 22 -81 0 -85 -1 -86 -22z m104 -250 c6 -67 6 -68 -19 -68
-24 0 -24 2 -20 48 3 26 9 83 13 127 l7 80 7 -60 c3 -33 9 -90 12 -127z"/>
<path d="M7780 3840 l0 -250 50 0 50 0 0 116 c0 105 2 115 18 112 15 -3 17
-18 20 -116 l3 -112 50 0 51 0 -4 115 c-2 89 -7 118 -19 131 -16 15 -15 18 2
35 39 39 19 195 -26 213 -9 3 -57 6 -106 6 l-89 0 0 -250z m146 136 c8 -35 -4
-66 -27 -66 -16 0 -19 7 -19 45 0 38 3 45 20 45 12 0 22 -9 26 -24z"/>
<path d="M8100 3840 l0 -250 50 0 49 0 3 113 3 112 25 -112 24 -113 48 0 c37
0 48 4 48 16 0 8 -14 69 -30 135 l-31 120 26 106 c14 57 25 109 25 114 0 6
-21 9 -47 7 l-48 -3 -21 -90 -22 -90 -1 93 -1 92 -50 0 -50 0 0 -250z"/>
<path d="M8420 3840 l0 -250 45 0 45 0 0 250 0 250 -45 0 -45 0 0 -250z"/>
<path d="M8584 4068 c3 -13 17 -125 32 -250 l27 -228 67 0 67 0 27 228 c15
125 29 237 32 250 4 20 1 22 -44 22 l-49 0 -13 -162 c-15 -183 -21 -179 -40
25 l-13 137 -49 0 c-45 0 -48 -2 -44 -22z"/>
<path d="M6319 3966 c-95 -65 -91 -222 7 -286 40 -27 137 -27 180 -1 49 30 75
81 75 146 0 105 -60 165 -165 165 -49 0 -69 -5 -97 -24z"/>
<path d="M9122 3970 c-50 -31 -72 -75 -72 -145 0 -107 59 -165 168 -165 103 0
163 61 163 165 0 66 -21 109 -71 142 -44 31 -140 32 -188 3z"/>
</g>
</svg>
